<svg xmlns="http://www.w3.org/2000/svg" width="186.8884mm" height="49.6449mm" viewBox="0 0 529.7624 140.7257">
  <title>Fichier 1</title>
  <g id="Calque_2" data-name="Calque 2">
    <g id="Calque_1-2" data-name="Calque 1">
      <g>
        <g>
          <path d="M70.8391,67.7243A35.9417,35.9417,0,0,1,58.7255,78.108q-7.7321,4.27-18.5757,4.2689A40.3926,40.3926,0,0,1,19.902,77.1855a38.3571,38.3571,0,0,1-14.5376-14.48A41.5482,41.5482,0,0,1,0,41.5347a42.0155,42.0155,0,0,1,5.48-21.46A39.3208,39.3208,0,0,1,20.3057,5.3072,40.4292,40.4292,0,0,1,40.6114,0,37.2231,37.2231,0,0,1,58.4947,4.0953,36.0538,36.0538,0,0,1,70.6091,14.2481,34.0292,34.0292,0,0,1,76.608,26.5354l-.2308.1158a8.16,8.16,0,0,1-7.3838-.6924,9.6216,9.6216,0,0,1-3.3457-3.4607,31.2111,31.2111,0,0,0-9.6341-10.2108Q49.84,8.0764,40.3806,8.0763a30.6712,30.6712,0,0,0-15.7488,4.211,31.0893,31.0893,0,0,0-11.48,11.71,33.6733,33.6733,0,0,0-4.2682,16.96A35.4626,35.4626,0,0,0,12.979,58.0331,30.4564,30.4564,0,0,0,24.2859,69.9746a30.8939,30.8939,0,0,0,16.2105,4.326q12.69,0,19.1516-6.7492a38.9291,38.9291,0,0,0,9.1146-14.8256l8.192,3A40.32,40.32,0,0,1,70.8391,67.7243Z" fill="#fff"/>
          <path d="M151.2545,73.1473a8.11,8.11,0,0,1-2.48,5.9418,8.2414,8.2414,0,0,1-6.0576,2.48V44.65H96.7979v36.92H88.375V.9225a8.11,8.11,0,0,1,5.9418,2.4811,8.1087,8.1087,0,0,1,2.4811,5.9418V36.5733h45.9187V.9225h8.5379Z" fill="#fff"/>
          <path d="M300.1143,4.2682a22.2525,22.2525,0,0,1,9.4612,8.8266,24.3448,24.3448,0,0,1,3.057,12.0565,23.1549,23.1549,0,0,1-13.2677,21.46,35.4846,35.4846,0,0,1-15.8067,3.4615q-4.9623-.1139-6.6914-2.654a8.6659,8.6659,0,0,1-1.7308-4.8456v-.3459h8.0763a25.296,25.296,0,0,0,11.7107-2.4232,16.26,16.26,0,0,0,6.8643-6.23,16.1469,16.1469,0,0,0,2.1924-8.1913,16.0318,16.0318,0,0,0-4.7306-11.7106q-4.7322-4.7862-15.5751-4.7878H265.7906V81.5694h-8.4221V.9225h26.997Q293.7113.9225,300.1143,4.2682Z" fill="#fff"/>
          <path d="M376.55,81.6845,366.2816,61.0329H335.7072l.4617-1.0383a15.329,15.329,0,0,1,3.6915-4.5,10.23,10.23,0,0,1,6.5763-2.1924h15.9218L345.6293,19.4982,314.8249,81.6845h-9.23L345.7451,1.0383,385.78,81.6845Z" fill="#fff"/>
          <path d="M443.9271,79.3771a20.2314,20.2314,0,0,1-7.153-6.1148L419.3525,49.38l-2.0766-2.769a3.2119,3.2119,0,0,1-.6925-1.9616,3.4112,3.4112,0,0,1,.9812-2.4224,3.262,3.262,0,0,1,2.48-1.039h1.2691q10.1509,0,15.2872-4.8456A15.4565,15.4565,0,0,0,441.7355,24.69a14.8655,14.8655,0,0,0-4.7885-11.3062q-4.7885-4.5-15.5172-4.5H402.5082V81.5694h-8.4229V.9225h27.9212q9.4584,0,15.8059,3.1728a21.6365,21.6365,0,0,1,9.4033,8.48,23.1721,23.1721,0,0,1,3.0577,11.7685q0,9.9245-6.2305,15.9218a26.6691,26.6691,0,0,1-15.8067,7.153l24.9213,34.1508A19.8977,19.8977,0,0,1,443.9271,79.3771Z" fill="#fff"/>
          <path d="M509.2259,6.1726A38.4491,38.4491,0,0,1,524.34,20.5944a39.49,39.49,0,0,1,5.4223,20.4786,39.0854,39.0854,0,0,1-5.711,20.9982,39.5364,39.5364,0,0,1-15.4022,14.3639,45.11,45.11,0,0,1-21.46,5.1343h-23.998V.9225h23.998A45.52,45.52,0,0,1,509.2259,6.1726ZM504.669,69.455a29.9169,29.9169,0,0,0,12.0565-11.48,32.5062,32.5062,0,0,0,4.2689-16.6713,32.9459,32.9459,0,0,0-4.211-16.6142,29.9178,29.9178,0,0,0-11.9415-11.5949,37.3011,37.3011,0,0,0-18.1141-4.2111H471.6143V73.609h15.2293A37.2963,37.2963,0,0,0,504.669,69.455Z" fill="#fff"/>
          <g>
            <path d="M227.3394,57.6277a33.2271,33.2271,0,0,0,4.018-16.1866,34.5327,34.5327,0,0,0-4.018-16.4129A31.071,31.071,0,0,0,216.133,12.974a29.2905,29.2905,0,0,0-12.0437-4.21,29.07,29.07,0,0,0-11.8269,4.0964,30.4024,30.4024,0,0,0-11.036,11.7707,33.9188,33.9188,0,0,0-3.9609,16.2439,34.4006,34.4006,0,0,0,4.0181,16.4688,30.8673,30.8673,0,0,0,11.1491,11.9411A29.2164,29.2164,0,0,0,204.46,73.44a29.0015,29.0015,0,0,0,11.7872-4.097A30.9335,30.9335,0,0,0,227.3394,57.6277Z" fill="none"/>
            <g>
              <path d="M224.5225,69.3424a30.9335,30.9335,0,0,0,11.092-11.7148,33.2265,33.2265,0,0,0,4.0181-16.1867,34.5319,34.5319,0,0,0-4.0181-16.4129,31.0714,31.0714,0,0,0-11.2063-12.0542,29.9245,29.9245,0,0,0-16.13-4.4718,34.0822,34.0822,0,0,0-4.1894.2623,29.2905,29.2905,0,0,1,12.0437,4.21,31.071,31.071,0,0,1,11.2064,12.0542,34.5327,34.5327,0,0,1,4.018,16.4129,33.2271,33.2271,0,0,1-4.018,16.1866,30.9335,30.9335,0,0,1-11.092,11.7148A29.0015,29.0015,0,0,1,204.46,73.44a34.4975,34.4975,0,0,0,4.1579.26A29.7143,29.7143,0,0,0,224.5225,69.3424Z" fill="#268335"/>
              <path d="M173.8691,61.7016a40.3052,40.3052,0,0,1-5.2066-20.2607,41.47,41.47,0,0,1,5.2066-20.5441A38.649,38.649,0,0,1,204.4529,1.016c-1.3484-.1267-2.713-.2106-4.11-.2106a39.4489,39.4489,0,0,0-20.43,5.3769A38.5728,38.5728,0,0,0,165.5939,20.897a41.4708,41.4708,0,0,0-5.2065,20.5441,40.3055,40.3055,0,0,0,5.2065,20.2606A38.62,38.62,0,0,0,179.8561,76.19a39.0132,39.0132,0,0,0,20.1475,5.32c1.4169,0,2.7995-.0842,4.1648-.21a38.7117,38.7117,0,0,1-30.2993-19.5977Z" fill="#268335"/>
            </g>
            <g>
              <path d="M228.7669,6.125a39.0515,39.0515,0,0,0-20.1488-5.32c-1.4172,0-2.8.0842-4.1652.2107a38.71,38.71,0,0,1,30.301,19.5975,40.33,40.33,0,0,1,5.2066,20.2619A41.4871,41.4871,0,0,1,234.7539,61.42a38.643,38.643,0,0,1-30.5855,19.88c1.3485.1265,2.7133.21,4.11.21A39.4464,39.4464,0,0,0,228.71,76.134,38.6166,38.6166,0,0,0,243.029,61.4194a41.4877,41.4877,0,0,0,5.2066-20.5441,40.3293,40.3293,0,0,0-5.2066-20.2619A38.6832,38.6832,0,0,0,228.7669,6.125Z" fill="#adce6d"/>
              <path d="M181.2836,57.3441a34.4006,34.4006,0,0,1-4.0181-16.4688,33.9188,33.9188,0,0,1,3.9609-16.2439,30.4024,30.4024,0,0,1,11.036-11.7707,29.07,29.07,0,0,1,11.8269-4.0964,33.4134,33.4134,0,0,0-4.0857-.2622,29.9233,29.9233,0,0,0-16.0163,4.3588,30.401,30.401,0,0,0-11.036,11.7707A33.9175,33.9175,0,0,0,168.99,40.8754a34.401,34.401,0,0,0,4.0181,16.4689,30.8662,30.8662,0,0,0,11.1491,11.941A30.1061,30.1061,0,0,0,200.343,73.7,33.4166,33.4166,0,0,0,204.46,73.44a29.2164,29.2164,0,0,1-12.0275-4.1543A30.8673,30.8673,0,0,1,181.2836,57.3441Z" fill="#adce6d"/>
            </g>
            <path d="M234.7539,61.42a41.4871,41.4871,0,0,0,5.2066-20.5441,40.33,40.33,0,0,0-5.2066-20.2619A38.71,38.71,0,0,0,204.4529,1.016a38.649,38.649,0,0,0-30.5838,19.8808,41.47,41.47,0,0,0-5.2066,20.5441,40.3052,40.3052,0,0,0,5.2066,20.2607,38.7117,38.7117,0,0,0,30.2993,19.5977,38.643,38.643,0,0,0,30.5855-19.88ZM200.343,73.7a30.1061,30.1061,0,0,1-16.1854-4.4147,30.8662,30.8662,0,0,1-11.1491-11.941A34.401,34.401,0,0,1,168.99,40.8754a33.9175,33.9175,0,0,1,3.9609-16.2438,30.401,30.401,0,0,1,11.036-11.7707,29.9233,29.9233,0,0,1,16.0163-4.3588,33.4134,33.4134,0,0,1,4.0857.2622,34.0822,34.0822,0,0,1,4.1894-.2623,29.9245,29.9245,0,0,1,16.13,4.4718A31.0714,31.0714,0,0,1,235.6145,25.028a34.5319,34.5319,0,0,1,4.0181,16.4129,33.2265,33.2265,0,0,1-4.0181,16.1867,30.9335,30.9335,0,0,1-11.092,11.7148A29.7143,29.7143,0,0,1,208.6181,73.7a34.4975,34.4975,0,0,1-4.1579-.26A33.4166,33.4166,0,0,1,200.343,73.7Z" fill="#52ae32"/>
          </g>
        </g>
        <g>
          <path d="M112.21,117.74a21.7551,21.7551,0,0,1-.1218,2.64,12.9049,12.9049,0,0,1-2.1123,5.6853,11.7054,11.7054,0,0,1-4.5475,3.9394,15.5664,15.5664,0,0,1-13.93-.4674,13.11,13.11,0,0,1-4.9752-5.1575,15.1652,15.1652,0,0,1-1.7667-7.33,14.8446,14.8446,0,0,1,1.8686-7.3906A13.8827,13.8827,0,0,1,91.762,104.4a14.0847,14.0847,0,0,1,7.29-1.9291,13.112,13.112,0,0,1,8.1017,2.3965,12.55,12.55,0,0,1,4.4474,6.0507,3.5939,3.5939,0,0,1-1.1379.203,3.4513,3.4513,0,0,1-1.6033-.3862,3.2557,3.2557,0,0,1-1.2388-1.1161,10.0084,10.0084,0,0,0-8.6909-4.386,10.4487,10.4487,0,0,0-5.7051,1.6043,11.2088,11.2088,0,0,0-3.96,4.2642,12.0011,12.0011,0,0,0-1.4211,5.7457,12.9008,12.9008,0,0,0,1.3607,5.929,10.56,10.56,0,0,0,3.8988,4.2642,10.9255,10.9255,0,0,0,5.9081,1.5844,11.4,11.4,0,0,0,4.7316-.9952,9.2507,9.2507,0,0,0,3.6344-2.863,8.2235,8.2235,0,0,0,1.6241-4.4266l.0406-.9339h-5.5635a2.7724,2.7724,0,0,1-2.7609-2.7619H112.21Z" fill="#fff"/>
          <path d="M127.6415,111.5267v3.0056a10.9766,10.9766,0,0,0-1.0972-.0812,5.1816,5.1816,0,0,0-4.6089,2.1113,8.8581,8.8581,0,0,0-1.4418,5.1169v6.6192a2.8418,2.8418,0,0,1-2.8422,2.8431V111.77h2.8016v3.8582a7.1148,7.1148,0,0,1,2.7-3.1274,6.7189,6.7189,0,0,1,3.5126-1.0151A7.4709,7.4709,0,0,1,127.6415,111.5267Z" fill="#fff"/>
          <path d="M145.4085,112.725a9.659,9.659,0,0,1,3.6145,3.6146,9.8889,9.8889,0,0,1,1.3192,5.0149,10.1557,10.1557,0,0,1-1.3192,5.1168,9.61,9.61,0,0,1-3.6145,3.6344,10.036,10.036,0,0,1-5.0971,1.32,9.8924,9.8924,0,0,1-9.99-9.95,10.1149,10.1149,0,0,1,1.32-5.1367,9.6526,9.6526,0,0,1,3.6145-3.6146,10.42,10.42,0,0,1,10.1526,0Zm-1.4211,15.208a7.1607,7.1607,0,0,0,2.5173-2.72,7.7869,7.7869,0,0,0,.9141-3.7364,7.9464,7.9464,0,0,0-.9141-3.7364,7.3471,7.3471,0,0,0-2.5381-2.8016,6.5637,6.5637,0,0,0-3.6552-1.0557,6.8214,6.8214,0,0,0-3.6948,1.0151,6.9558,6.9558,0,0,0-2.5183,2.72,7.9312,7.9312,0,0,0-.8933,3.7364,8.0258,8.0258,0,0,0,.9141,3.777,7.183,7.183,0,0,0,2.5381,2.7817,6.7234,6.7234,0,0,0,3.6948,1.0358A6.6531,6.6531,0,0,0,143.9874,127.933Z" fill="#fff"/>
          <path d="M170.4235,112.5012a2.7262,2.7262,0,0,1,1.97-.812V131.06h-2.762V127.527a7.272,7.272,0,0,1-6.66,3.8988,6.8727,6.8727,0,0,1-5.4011-2.1321,8.1107,8.1107,0,0,1-1.9084-5.6239V111.6892a2.7729,2.7729,0,0,1,2.8016,2.8025v8.4869a6.3423,6.3423,0,0,0,1.38,4.285,4.9635,4.9635,0,0,0,3.98,1.6042,5.4086,5.4086,0,0,0,4.1424-1.7468,6.1321,6.1321,0,0,0,1.6241-4.3454v-8.2839A2.6734,2.6734,0,0,1,170.4235,112.5012Z" fill="#fff"/>
          <path d="M193.3885,112.9072a9.7614,9.7614,0,0,1,3.2284,3.7166,10.6346,10.6346,0,0,1,1.1576,4.8525,10.9978,10.9978,0,0,1-1.1378,4.9138,9.198,9.198,0,0,1-3.2284,3.6958,8.7191,8.7191,0,0,1-12.2034-2.8837v10.68a2.8418,2.8418,0,0,1-2.8422,2.8431V111.811h2.8016v4.2236q2.8838-4.548,7.5133-4.5485A8.1346,8.1346,0,0,1,193.3885,112.9072Zm-1.7063,15.0872a6.46,6.46,0,0,0,2.3559-2.6807,8.5423,8.5423,0,0,0,.8121-3.7562,8.7175,8.7175,0,0,0-.8121-3.7562,6.69,6.69,0,0,0-2.3559-2.762,6.687,6.687,0,0,0-7.147,0,7.2246,7.2246,0,0,0-2.4777,2.7412,7.7633,7.7633,0,0,0-.8932,3.6552,8.2353,8.2353,0,0,0,.8734,3.7364,6.9883,6.9883,0,0,0,2.4569,2.7817,6.3854,6.3854,0,0,0,3.574,1.0358A6.5174,6.5174,0,0,0,191.6822,127.9944Z" fill="#fff"/>
          <path d="M217.51,119.6086a6.9794,6.9794,0,0,0-1.9281-4.3662,6.38,6.38,0,0,0-7.3916-.8319,6.9648,6.9648,0,0,0-2.3144,2.1727,7.2087,7.2087,0,0,0-1.1576,2.9848,2.5494,2.5494,0,0,0-.0812.8526v.0406q0,.8937.0406,1.5429a6.8419,6.8419,0,0,0,6.9034,6.62,6.6471,6.6471,0,0,0,3.4116-.8536,5.5731,5.5731,0,0,0,2.2331-2.4361l2.3965,1.1368a7.8512,7.8512,0,0,1-3.2492,3.4522,9.4793,9.4793,0,0,1-4.7514,1.2181,9.644,9.644,0,0,1-8.5483-4.9743,10.5382,10.5382,0,0,1-.0406-9.99,9.8415,9.8415,0,0,1,3.3908-3.676,8.6961,8.6961,0,0,1,4.7921-1.38,9.2192,9.2192,0,0,1,4.9752,1.2795,8.1192,8.1192,0,0,1,3.1066,3.5532,12.0185,12.0185,0,0,1,1.0556,5.1169,7.5579,7.5579,0,0,1-.0406.9338h-9.1374a2.0154,2.0154,0,0,1-1.7866-.71,2.8542,2.8542,0,0,1-.5278-1.4824v-.203Z" fill="#fff"/>
          <path d="M254.3037,131.1822l-3.6145-7.2688H239.9276l.1624-.3654a5.3879,5.3879,0,0,1,1.2993-1.5845,3.6008,3.6008,0,0,1,2.3143-.7714h5.6051l-5.8893-11.8985-10.8428,21.8886h-3.2482L243.46,102.7953l14.0919,28.3869Z" fill="#fff"/>
          <path d="M275.7655,112.5012a2.7265,2.7265,0,0,1,1.97-.812V131.06h-2.7619V127.527a7.2721,7.2721,0,0,1-6.66,3.8988,6.8729,6.8729,0,0,1-5.4011-2.1321,8.1111,8.1111,0,0,1-1.9083-5.6239V111.6892a2.773,2.773,0,0,1,2.8016,2.8025v8.4869a6.3418,6.3418,0,0,0,1.38,4.285,4.9634,4.9634,0,0,0,3.98,1.6042,5.4088,5.4088,0,0,0,4.1424-1.7468,6.1325,6.1325,0,0,0,1.6241-4.3454v-8.2839A2.6736,2.6736,0,0,1,275.7655,112.5012Z" fill="#fff"/>
          <path d="M291.9074,128.6242a9.8883,9.8883,0,0,0,1.7459-.1227v2.3559a7.9621,7.9621,0,0,1-1.0962.203,9.2068,9.2068,0,0,1-1.1369.0812q-5.4828,0-5.4823-5.1575V114.1263h-3.574v-2.4777h3.574v-5.6041a2.773,2.773,0,0,1,2.8016,2.8025v2.8016h4.9138a2.386,2.386,0,0,1-.7308,1.7468,2.4308,2.4308,0,0,1-1.7865.7309H288.74v11.7766Q288.74,128.6238,291.9074,128.6242Z" fill="#fff"/>
          <path d="M312.5166,112.725a9.659,9.659,0,0,1,3.6145,3.6146,9.8888,9.8888,0,0,1,1.3191,5.0149,10.1556,10.1556,0,0,1-1.3191,5.1168,9.61,9.61,0,0,1-3.6145,3.6344,10.036,10.036,0,0,1-5.0971,1.32,9.8922,9.8922,0,0,1-9.99-9.95,10.1158,10.1158,0,0,1,1.32-5.1367,9.6528,9.6528,0,0,1,3.6146-3.6146,10.42,10.42,0,0,1,10.1526,0Zm-1.4211,15.208a7.1615,7.1615,0,0,0,2.5173-2.72,7.7869,7.7869,0,0,0,.9141-3.7364,7.9464,7.9464,0,0,0-.9141-3.7364,7.3479,7.3479,0,0,0-2.5381-2.8016,6.564,6.564,0,0,0-3.6552-1.0557,6.8214,6.8214,0,0,0-3.6948,1.0151,6.9551,6.9551,0,0,0-2.5183,2.72,7.93,7.93,0,0,0-.8933,3.7364,8.0269,8.0269,0,0,0,.914,3.777,7.184,7.184,0,0,0,2.5382,2.7817,6.7234,6.7234,0,0,0,3.6948,1.0358A6.6531,6.6531,0,0,0,311.0955,127.933Z" fill="#fff"/>
          <path d="M350.344,113.5777a8.1647,8.1647,0,0,1,1.8677,5.5842v11.98a2.8434,2.8434,0,0,1-2.8421-2.8431v-8.4463a6.6936,6.6936,0,0,0-1.2389-4.2038,4.45,4.45,0,0,0-3.7562-1.6033,4.8365,4.8365,0,0,0-3.9186,1.7251,6.3984,6.3984,0,0,0-1.4419,4.2444v8.3245a2.7265,2.7265,0,0,1-.812,1.97,2.6736,2.6736,0,0,1-1.99.8328V119.771a6.5682,6.5682,0,0,0-1.2587-4.1424,4.4379,4.4379,0,0,0-3.7364-1.6241,4.8306,4.8306,0,0,0-2.8422.8526,5.5436,5.5436,0,0,0-1.8686,2.2539,7.0979,7.0979,0,0,0-.65,3.0254v8.1621a2.8418,2.8418,0,0,1-2.8422,2.8431V111.77h2.8016v3.3709a9.2236,9.2236,0,0,1,2.6807-2.8025,6.4272,6.4272,0,0,1,3.5325-.9339,6.88,6.88,0,0,1,3.7364.9953,6.6569,6.6569,0,0,1,2.4777,2.9035,8.9664,8.9664,0,0,1,2.9233-2.8837,7.5807,7.5807,0,0,1,3.8988-.9745A6.6474,6.6474,0,0,1,350.344,113.5777Z" fill="#fff"/>
          <path d="M372.6188,112.725a9.66,9.66,0,0,1,3.6146,3.6146,9.8888,9.8888,0,0,1,1.3191,5.0149,10.1556,10.1556,0,0,1-1.3191,5.1168,9.6111,9.6111,0,0,1-3.6146,3.6344,10.0359,10.0359,0,0,1-5.097,1.32,9.8924,9.8924,0,0,1-9.99-9.95,10.1159,10.1159,0,0,1,1.32-5.1367,9.6521,9.6521,0,0,1,3.6146-3.6146,10.42,10.42,0,0,1,10.1525,0Zm-1.4211,15.208a7.1617,7.1617,0,0,0,2.5174-2.72,7.788,7.788,0,0,0,.914-3.7364,7.9475,7.9475,0,0,0-.914-3.7364,7.3481,7.3481,0,0,0-2.5382-2.8016,6.5636,6.5636,0,0,0-3.6551-1.0557,6.8217,6.8217,0,0,0-3.6949,1.0151,6.9566,6.9566,0,0,0-2.5183,2.72,7.9311,7.9311,0,0,0-.8932,3.7364,8.0269,8.0269,0,0,0,.914,3.777,7.1838,7.1838,0,0,0,2.5381,2.7817,6.7237,6.7237,0,0,0,3.6949,1.0358A6.6528,6.6528,0,0,0,371.1977,127.933Z" fill="#fff"/>
          <path d="M398.1418,112.5824a9.7606,9.7606,0,0,1,3.2284,3.7166,10.6343,10.6343,0,0,1,1.1576,4.8525,10.9981,10.9981,0,0,1-1.1378,4.9138,9.198,9.198,0,0,1-3.2284,3.6958,8.7109,8.7109,0,0,1-12.244-2.9649v4.0612H383.116V101.3336a2.8418,2.8418,0,0,1,2.8422,2.8431v11.4925a11.3985,11.3985,0,0,1,3.1273-3.29,7.5289,7.5289,0,0,1,4.3455-1.2181A8.1338,8.1338,0,0,1,398.1418,112.5824Zm-1.7063,15.0466a6.4605,6.4605,0,0,0,2.3559-2.6807,8.5426,8.5426,0,0,0,.8121-3.7562,8.7183,8.7183,0,0,0-.8121-3.7563,6.5446,6.5446,0,0,0-2.3559-2.7411,6.4228,6.4228,0,0,0-3.6136-1.0151,6.3173,6.3173,0,0,0-3.5334,1.0349,7.2254,7.2254,0,0,0-2.4777,2.7412,7.7633,7.7633,0,0,0-.8932,3.6552,8.1068,8.1068,0,0,0,.8734,3.7156,7.0219,7.0219,0,0,0,2.4569,2.7619,6.3862,6.3862,0,0,0,3.574,1.0358A6.5174,6.5174,0,0,0,396.4355,127.629Z" fill="#fff"/>
          <path d="M411.34,106.41a2.0828,2.0828,0,0,1-1.6241.5278,2.023,2.023,0,0,1-1.3606-.6289,1.9119,1.9119,0,0,1-.5883-1.4012,2.1794,2.1794,0,0,1,.609-1.5429,1.9335,1.9335,0,0,1,1.4617-.6506,3.4719,3.4719,0,0,1,.5685.0812,2.16,2.16,0,0,1,1.6241,2.0717A1.9654,1.9654,0,0,1,411.34,106.41Zm-.0406,5.3605v16.4875a2.8093,2.8093,0,0,1-.8318,2.031,2.7082,2.7082,0,0,1-2.01.8527V111.77Z" fill="#fff"/>
          <path d="M418.4063,101.5772h2.8828v29.5644h-2.8828Z" fill="#fff"/>
          <path d="M442.1626,119.6086a6.98,6.98,0,0,0-1.9282-4.3662,6.38,6.38,0,0,0-7.3915-.8319,6.9648,6.9648,0,0,0-2.3144,2.1727,7.2087,7.2087,0,0,0-1.1576,2.9848,2.5494,2.5494,0,0,0-.0812.8526v.0406q0,.8937.0406,1.5429a6.8417,6.8417,0,0,0,6.9034,6.62,6.6465,6.6465,0,0,0,3.4115-.8536,5.5728,5.5728,0,0,0,2.2332-2.4361l2.3965,1.1368a7.8512,7.8512,0,0,1-3.2492,3.4522,9.4793,9.4793,0,0,1-4.7514,1.2181,9.644,9.644,0,0,1-8.5483-4.9743,10.5374,10.5374,0,0,1-.0406-9.99,9.8407,9.8407,0,0,1,3.3908-3.676,8.6958,8.6958,0,0,1,4.792-1.38,9.2193,9.2193,0,0,1,4.9753,1.2795,8.119,8.119,0,0,1,3.1065,3.5532,12.017,12.017,0,0,1,1.0557,5.1169,7.5783,7.5783,0,0,1-.0406.9338h-9.1375a2.0152,2.0152,0,0,1-1.7865-.71,2.8533,2.8533,0,0,1-.5278-1.4824v-.203Z" fill="#fff"/>
        </g>
        <polygon points="0 119.404 63.39 119.419 65.558 114.361 2.241 114.346 0 119.404" fill="#52ae32"/>
        <polygon points="464.139 119.404 527.529 119.419 529.696 114.361 466.38 114.346 464.139 119.404" fill="#52ae32"/>
      </g>
    </g>
  </g>
</svg>
