<svg xmlns="http://www.w3.org/2000/svg" width="186.8884mm" height="29.0607mm" viewBox="0 0 529.7624 82.3769">
  <title>chopard-only</title>
  <g id="Calque_2" data-name="Calque 2">
    <g id="Calque_1-2" data-name="Calque 1">
      <g>
        <path d="M70.8391,67.7243A35.9417,35.9417,0,0,1,58.7255,78.108q-7.7321,4.27-18.5757,4.2689A40.3926,40.3926,0,0,1,19.902,77.1855a38.3571,38.3571,0,0,1-14.5376-14.48A41.5482,41.5482,0,0,1,0,41.5347a42.0155,42.0155,0,0,1,5.48-21.46A39.3208,39.3208,0,0,1,20.3057,5.3072,40.4292,40.4292,0,0,1,40.6114,0,37.2231,37.2231,0,0,1,58.4947,4.0953,36.0538,36.0538,0,0,1,70.6091,14.2481,34.0292,34.0292,0,0,1,76.608,26.5354l-.2308.1158a8.16,8.16,0,0,1-7.3838-.6924,9.6216,9.6216,0,0,1-3.3457-3.4607,31.2111,31.2111,0,0,0-9.6341-10.2108Q49.84,8.0764,40.3806,8.0763a30.6712,30.6712,0,0,0-15.7488,4.211,31.0893,31.0893,0,0,0-11.48,11.71,33.6733,33.6733,0,0,0-4.2682,16.96A35.4626,35.4626,0,0,0,12.979,58.0331,30.4564,30.4564,0,0,0,24.2859,69.9746a30.8939,30.8939,0,0,0,16.2105,4.326q12.69,0,19.1516-6.7492a38.9291,38.9291,0,0,0,9.1146-14.8256l8.192,3A40.32,40.32,0,0,1,70.8391,67.7243Z" fill="#fff"/>
        <path d="M151.2545,73.1473a8.11,8.11,0,0,1-2.48,5.9418,8.2414,8.2414,0,0,1-6.0576,2.48V44.65H96.7979v36.92H88.375V.9225a8.11,8.11,0,0,1,5.9418,2.4811,8.1087,8.1087,0,0,1,2.4811,5.9418V36.5733h45.9187V.9225h8.5379Z" fill="#fff"/>
        <path d="M300.1143,4.2682a22.2525,22.2525,0,0,1,9.4612,8.8266,24.3448,24.3448,0,0,1,3.057,12.0565,23.1549,23.1549,0,0,1-13.2677,21.46,35.4846,35.4846,0,0,1-15.8067,3.4615q-4.9623-.1139-6.6914-2.654a8.6659,8.6659,0,0,1-1.7308-4.8456v-.3459h8.0763a25.296,25.296,0,0,0,11.7107-2.4232,16.26,16.26,0,0,0,6.8643-6.23,16.1469,16.1469,0,0,0,2.1924-8.1913,16.0318,16.0318,0,0,0-4.7306-11.7106q-4.7322-4.7862-15.5751-4.7878H265.7906V81.5694h-8.4221V.9225h26.997Q293.7113.9225,300.1143,4.2682Z" fill="#fff"/>
        <path d="M376.55,81.6845,366.2816,61.0329H335.7072l.4617-1.0383a15.329,15.329,0,0,1,3.6915-4.5,10.23,10.23,0,0,1,6.5763-2.1924h15.9218L345.6293,19.4982,314.8249,81.6845h-9.23L345.7451,1.0383,385.78,81.6845Z" fill="#fff"/>
        <path d="M443.9271,79.3771a20.2314,20.2314,0,0,1-7.153-6.1148L419.3525,49.38l-2.0766-2.769a3.2119,3.2119,0,0,1-.6925-1.9616,3.4112,3.4112,0,0,1,.9812-2.4224,3.262,3.262,0,0,1,2.48-1.039h1.2691q10.1509,0,15.2872-4.8456A15.4565,15.4565,0,0,0,441.7355,24.69a14.8655,14.8655,0,0,0-4.7885-11.3062q-4.7885-4.5-15.5172-4.5H402.5082V81.5694h-8.4229V.9225h27.9212q9.4584,0,15.8059,3.1728a21.6365,21.6365,0,0,1,9.4033,8.48,23.1721,23.1721,0,0,1,3.0577,11.7685q0,9.9245-6.2305,15.9218a26.6691,26.6691,0,0,1-15.8067,7.153l24.9213,34.1508A19.8977,19.8977,0,0,1,443.9271,79.3771Z" fill="#fff"/>
        <path d="M509.2259,6.1726A38.4491,38.4491,0,0,1,524.34,20.5944a39.49,39.49,0,0,1,5.4223,20.4786,39.0854,39.0854,0,0,1-5.711,20.9982,39.5364,39.5364,0,0,1-15.4022,14.3639,45.11,45.11,0,0,1-21.46,5.1343h-23.998V.9225h23.998A45.52,45.52,0,0,1,509.2259,6.1726ZM504.669,69.455a29.9169,29.9169,0,0,0,12.0565-11.48,32.5062,32.5062,0,0,0,4.2689-16.6713,32.9459,32.9459,0,0,0-4.211-16.6142,29.9178,29.9178,0,0,0-11.9415-11.5949,37.3011,37.3011,0,0,0-18.1141-4.2111H471.6143V73.609h15.2293A37.2963,37.2963,0,0,0,504.669,69.455Z" fill="#fff"/>
        <g>
          <path d="M227.3394,57.6277a33.2271,33.2271,0,0,0,4.018-16.1866,34.5327,34.5327,0,0,0-4.018-16.4129A31.071,31.071,0,0,0,216.133,12.974a29.2905,29.2905,0,0,0-12.0437-4.21,29.07,29.07,0,0,0-11.8269,4.0964,30.4024,30.4024,0,0,0-11.036,11.7707,33.9188,33.9188,0,0,0-3.9609,16.2439,34.4006,34.4006,0,0,0,4.0181,16.4688,30.8673,30.8673,0,0,0,11.1491,11.9411A29.2164,29.2164,0,0,0,204.46,73.44a29.0015,29.0015,0,0,0,11.7872-4.097A30.9335,30.9335,0,0,0,227.3394,57.6277Z" fill="none"/>
          <g>
            <path d="M224.5225,69.3424a30.9335,30.9335,0,0,0,11.092-11.7148,33.2265,33.2265,0,0,0,4.0181-16.1867,34.5319,34.5319,0,0,0-4.0181-16.4129,31.0714,31.0714,0,0,0-11.2063-12.0542,29.9245,29.9245,0,0,0-16.13-4.4718,34.0822,34.0822,0,0,0-4.1894.2623,29.2905,29.2905,0,0,1,12.0437,4.21,31.071,31.071,0,0,1,11.2064,12.0542,34.5327,34.5327,0,0,1,4.018,16.4129,33.2271,33.2271,0,0,1-4.018,16.1866,30.9335,30.9335,0,0,1-11.092,11.7148A29.0015,29.0015,0,0,1,204.46,73.44a34.4975,34.4975,0,0,0,4.1579.26A29.7143,29.7143,0,0,0,224.5225,69.3424Z" fill="#268335"/>
            <path d="M173.8691,61.7016a40.3052,40.3052,0,0,1-5.2066-20.2607,41.47,41.47,0,0,1,5.2066-20.5441A38.649,38.649,0,0,1,204.4529,1.016c-1.3484-.1267-2.713-.2106-4.11-.2106a39.4489,39.4489,0,0,0-20.43,5.3769A38.5728,38.5728,0,0,0,165.5939,20.897a41.4708,41.4708,0,0,0-5.2065,20.5441,40.3055,40.3055,0,0,0,5.2065,20.2606A38.62,38.62,0,0,0,179.8561,76.19a39.0132,39.0132,0,0,0,20.1475,5.32c1.4169,0,2.7995-.0842,4.1648-.21a38.7117,38.7117,0,0,1-30.2993-19.5977Z" fill="#268335"/>
          </g>
          <g>
            <path d="M228.7669,6.125a39.0515,39.0515,0,0,0-20.1488-5.32c-1.4172,0-2.8.0842-4.1652.2107a38.71,38.71,0,0,1,30.301,19.5975,40.33,40.33,0,0,1,5.2066,20.2619A41.4871,41.4871,0,0,1,234.7539,61.42a38.643,38.643,0,0,1-30.5855,19.88c1.3485.1265,2.7133.21,4.11.21A39.4464,39.4464,0,0,0,228.71,76.134,38.6166,38.6166,0,0,0,243.029,61.4194a41.4877,41.4877,0,0,0,5.2066-20.5441,40.3293,40.3293,0,0,0-5.2066-20.2619A38.6832,38.6832,0,0,0,228.7669,6.125Z" fill="#adce6d"/>
            <path d="M181.2836,57.3441a34.4006,34.4006,0,0,1-4.0181-16.4688,33.9188,33.9188,0,0,1,3.9609-16.2439,30.4024,30.4024,0,0,1,11.036-11.7707,29.07,29.07,0,0,1,11.8269-4.0964,33.4134,33.4134,0,0,0-4.0857-.2622,29.9233,29.9233,0,0,0-16.0163,4.3588,30.401,30.401,0,0,0-11.036,11.7707A33.9175,33.9175,0,0,0,168.99,40.8754a34.401,34.401,0,0,0,4.0181,16.4689,30.8662,30.8662,0,0,0,11.1491,11.941A30.1061,30.1061,0,0,0,200.343,73.7,33.4166,33.4166,0,0,0,204.46,73.44a29.2164,29.2164,0,0,1-12.0275-4.1543A30.8673,30.8673,0,0,1,181.2836,57.3441Z" fill="#adce6d"/>
          </g>
          <path d="M234.7539,61.42a41.4871,41.4871,0,0,0,5.2066-20.5441,40.33,40.33,0,0,0-5.2066-20.2619A38.71,38.71,0,0,0,204.4529,1.016a38.649,38.649,0,0,0-30.5838,19.8808,41.47,41.47,0,0,0-5.2066,20.5441,40.3052,40.3052,0,0,0,5.2066,20.2607,38.7117,38.7117,0,0,0,30.2993,19.5977,38.643,38.643,0,0,0,30.5855-19.88ZM200.343,73.7a30.1061,30.1061,0,0,1-16.1854-4.4147,30.8662,30.8662,0,0,1-11.1491-11.941A34.401,34.401,0,0,1,168.99,40.8754a33.9175,33.9175,0,0,1,3.9609-16.2438,30.401,30.401,0,0,1,11.036-11.7707,29.9233,29.9233,0,0,1,16.0163-4.3588,33.4134,33.4134,0,0,1,4.0857.2622,34.0822,34.0822,0,0,1,4.1894-.2623,29.9245,29.9245,0,0,1,16.13,4.4718A31.0714,31.0714,0,0,1,235.6145,25.028a34.5319,34.5319,0,0,1,4.0181,16.4129,33.2265,33.2265,0,0,1-4.0181,16.1867,30.9335,30.9335,0,0,1-11.092,11.7148A29.7143,29.7143,0,0,1,208.6181,73.7a34.4975,34.4975,0,0,1-4.1579-.26A33.4166,33.4166,0,0,1,200.343,73.7Z" fill="#52ae32"/>
        </g>
      </g>
    </g>
  </g>
</svg>
