<?xml version="1.0" encoding="UTF-8"?>
<svg width="300" height="300" version="1.1" viewBox="0 0 300 300" xml:space="preserve" xmlns="http://www.w3.org/2000/svg">
<style type="text/css">
	.st0{fill:#D9D9D9;}
	.st1{fill:#333333;}
	.st2{fill:#999999;}
	.st3{fill:#3D3D3D;}
	.st4{fill:#383838;}
	.st5{fill:#404040;}
	.st6{fill:#83ABDB;}
	.st7{fill:#5E83C2;}
	.st8{fill:#89A8D8;}
	.st9{fill:#678FCA;}
	.st10{fill:#333B8F;}
	.st11{fill:#4F60A9;}
	.st12{fill:#E30613;}
</style>

















<g transform="matrix(1.6803 0 0 1.6803 -87.12 -86.681)"><polygon class="st0" points="197.64 153.02 197.55 156.45 207.33 163.99 207.48 158.52"/><path class="st1" d="m184.43 139.06c-0.05 0.08-0.1 0.16-0.16 0.24-0.15 0.24-0.31 0.47-0.48 0.71-0.06 0.09-0.13 0.18-0.2 0.27-0.17 0.23-0.35 0.46-0.53 0.7-0.07 0.1-0.15 0.19-0.23 0.29-0.19 0.23-0.38 0.46-0.58 0.68-0.09 0.1-0.17 0.2-0.26 0.29-0.2 0.23-0.41 0.45-0.63 0.67-0.05 0.06-0.11 0.12-0.16 0.17l0.01 0.77 16.43 9.18 0.2-7.21-13.31-6.91c-0.03 0.04-0.07 0.09-0.1 0.15z"/><path class="st2" d="m186 135.95c-0.03 0.07-0.06 0.15-0.09 0.22-0.04 0.11-0.09 0.22-0.14 0.34-0.07 0.17-0.15 0.35-0.24 0.53-0.05 0.12-0.11 0.23-0.17 0.35-0.09 0.18-0.19 0.37-0.29 0.55-0.07 0.12-0.13 0.24-0.2 0.36-0.11 0.19-0.22 0.37-0.34 0.56-0.07 0.11-0.14 0.23-0.21 0.34 0.03-0.05 0.06-0.1 0.1-0.15 0.03-0.05 0.07-0.11 0.1-0.16l13.31 6.91-0.2 7.21 9.84 5.5 0.4-14.59z"/><polygon class="st3" points="197.64 153.02 181.21 143.84 197.55 156.45"/><path class="st4" d="m186.16 135.47c-0.07 0.23-0.16 0.46-0.25 0.7 0.03-0.08 0.06-0.15 0.09-0.23l21.88 7.98-0.4 14.59 8.96 5.01 0.55-20.07z"/><path class="st5" d="m181.21 143.84-0.01-0.77c0.06-0.06 0.12-0.13 0.17-0.19-1.06 1.1-2.28 2.18-3.65 3.19l19.57 19.8 0.26-9.43z"/><path class="st6" d="m104.81 179.32 16.3-23.46-11.44 1.28-24.87 23.79c6.17-0.66 12.88-1.2 20.01-1.61z"/><path class="st7" d="m132.42 178.46 7.37-25.26-9.67 1-15.98 24.68c5.88-0.24 12-0.38 18.28-0.42z"/><path class="st8" d="m161.38 178.98-6.59-27.45-7.67 0.67-5.49 26.27c6.81 0.06 13.41 0.23 19.75 0.51z"/><path class="st9" d="m191.13 181.27-20.68-31.74-7.33 0.67 8.48 29.34c6.99 0.45 13.54 1.03 19.53 1.73z"/><path class="st5" d="m170.54 134.95c0.01-0.35 0.04-0.69 0.07-1.02l-108.16-2.43v19.03l7.83-0.44v-10.43l100.26-4.79v0.08z"/><path class="st10" d="m158.43 95.14c0.02-1.84-0.82-2.58-2.54-2.22s-2.68 0.39-2.88 0.11c-0.2-0.29-0.08-1.38 0.39-3.27 0.46-1.9 1.2-4.51 2.22-7.84s1.5-5.3 1.45-5.89c-0.05-0.6-0.13-1.26-0.24-2-0.1-0.73-0.47-1.33-1.1-1.8-0.63-0.46-1.2-0.79-1.71-0.97s-0.81-0.04-0.91 0.4c-0.1 0.45-1.2 3.63-3.31 9.54s-3.5 9.7-4.16 11.37c-0.67 1.67-1.24 2.67-1.71 3.01-0.47 0.33-2.14 0.84-5.02 1.52s-5.28 1.16-7.21 1.45-3.37 0.48-4.32 0.57c-0.95 0.1-1.86 0.29-2.72 0.59s-0.87-0.47-0.01-2.31c0.85-1.84 2.68-5.96 5.48-12.35s4.69-10.71 5.66-12.96 1.62-3.76 1.96-4.54c0.33-0.78 0.61-1.28 0.84-1.5 0.23-0.23 0.2-1.08-0.09-2.55-0.29-1.48-0.87-2.38-1.74-2.72s-1.48-0.35-1.81-0.05c-0.33 0.26-0.66 0.46-1.01 0.61-0.34 0.14-1.53 2.48-3.55 7.01-2.03 4.53-4.08 9.21-6.15 14.04-2.08 4.83-3.48 8.06-4.21 9.71s-1.46 3.22-2.2 4.73-1.45 2.5-2.12 2.99c-0.67 0.48-1.73 1.1-3.17 1.84-1.44 0.75-2.28 1.52-2.54 2.32-0.25 0.8-0.33 1.63-0.23 2.51s0.68 1.55 1.74 2.04c0.49 0.22 0.78 0.61 0.87 1.13-10.25 4.29-29.67 11.6-32.68-0.25-4.1-16.1 22.32-40.92 33.97-34.96 0.44 0.22 0.16-0.22-0.37-0.79-0.34-0.35-0.53-0.56-1.05-1.03-0.32-0.29-0.58-0.51-0.68-0.53-6.43-3.01-12.66-1.11-16.78 0.78-13.52 5.53-32.05 23.35-22.36 41.67 7.52 14.22 26.67 6.01 39.81-3.43-0.08 0.3-0.19 0.61-0.34 0.96-0.8 1.88-2.37 5.99-4.71 12.33s-3.34 9.67-2.98 10 0.85 0.88 1.47 1.64 1.38 0.79 2.28 0.1 1.67-1.89 2.3-3.6 2.1-5.61 4.41-11.69 3.87-9.87 4.67-11.38c0.8-1.5 2.97-2.69 6.51-3.56s7.23-1.78 11.09-2.73 5.64-0.66 5.36 0.87c-0.29 1.53-0.7 3.31-1.25 5.34s-1.01 3.96-1.39 5.78-0.73 3.13-1.04 3.93-0.88 2.83-1.7 6.09-0.49 3.95 1 2.06 2.64-3.71 3.45-5.48c0.81-1.76 2.21-5.06 4.21-9.89s3.29-8.01 3.87-9.55 1.18-2.41 1.78-2.62 1.94-0.56 4.02-1.06c2.1-0.51 3.15-1.68 3.18-3.52zm56.2-13.57c-0.4-0.71-1.04-1.25-1.91-1.63s-1.66-0.54-2.35-0.49-1.4 0.27-2.11 0.68c-0.71 0.4-1.48 1.09-2.32 2.06s-2.99 3.32-6.46 7.06-7.84 7.88-13.11 12.45c-5.27 4.56-9.47 7.95-12.62 10.16-3.14 2.21-5.12 3.42-5.92 3.64s-1.58 0.19-2.34-0.11c-0.76-0.29-1.13-1.71-1.11-4.26s0.6-5.8 1.75-9.76 2.67-8.31 4.56-13.04c1.89-4.74 3.62-8.79 5.18-12.16s2.33-5.6 2.32-6.68c-0.01-1.09-0.17-1.85-0.49-2.28s-1.42-0.81-3.33-1.16c-1.9-0.34-3.18-0.27-3.83 0.21-0.62 0.48-1.49 2.81-2.63 6.96-1.14 4.16-2.34 7.79-3.61 10.89s-2.47 6.45-3.6 10.03c-1.13 3.59-2.07 6.79-2.81 9.63-0.74 2.83-1.13 4.64-1.17 5.43s-0.12 1.71-0.24 2.75c-0.13 1.04-0.16 2.39-0.1 4.06 0.06 1.66 0.33 3.03 0.79 4.1s1.37 2.07 2.71 3 3.02 1.39 5.04 1.39c2.02-0.01 4.18-0.56 6.48-1.66s5.48-3.35 9.53-6.74 6.56-5.48 7.55-6.27 3.69-3.25 8.11-7.4 6.08-5.32 4.99-3.51-2.31 4.06-3.66 6.74c-1.35 2.69-2.12 5.23-2.3 7.63-0.19 2.4-0.1 4.26 0.28 5.56s1.15 2.5 2.33 3.6c4.22 3.95 9.26 1.22 11.23 0.01s3.43-2.58 4.37-4.1c0.12-0.19 0.2-0.35 0.26-0.51-10.61 4.59-11.22-0.21-10.86-3.85 0.02-0.65 0.09-1.41 0.2-2.28 0.28-2.18 0.89-4.25 1.85-6.2s2.58-5.54 4.88-10.78c2.29-5.23 3.71-8.56 4.25-9.98 0.55-1.41 0.62-2.48 0.22-3.19z"/><path class="st11" d="m113.79 74.23c0.12 0.18 0.14 0.29 0.02 0.25-0.03-0.01-0.07-0.03-0.13-0.05-0.22-0.12-0.46-0.21-0.69-0.31-0.07-0.03-0.14-0.05-0.2-0.07-0.18-0.07-0.37-0.13-0.56-0.18-0.06-0.02-0.12-0.04-0.19-0.05-0.25-0.06-0.5-0.12-0.75-0.16-0.05-0.01-0.09-0.01-0.14-0.02-0.21-0.03-0.43-0.06-0.65-0.07-0.08-0.01-0.16-0.01-0.23-0.02-0.22-0.01-0.45-0.02-0.67-0.02h-0.15c-0.27 0-0.55 0.02-0.83 0.04-0.07 0.01-0.14 0.02-0.21 0.02-0.22 0.02-0.45 0.05-0.67 0.08-0.08 0.01-0.16 0.03-0.24 0.04-0.29 0.05-0.58 0.1-0.87 0.17-0.3 0.07-0.6 0.15-0.9 0.23-0.08 0.02-0.17 0.05-0.25 0.07-0.24 0.07-0.47 0.14-0.71 0.22-0.08 0.02-0.15 0.05-0.23 0.07-0.31 0.11-0.61 0.22-0.92 0.34l-0.15 0.06c-0.26 0.11-0.53 0.22-0.79 0.34-0.09 0.04-0.18 0.08-0.27 0.12-0.26 0.12-0.52 0.24-0.79 0.37-0.06 0.03-0.11 0.05-0.17 0.08-0.32 0.16-0.63 0.32-0.95 0.5-0.07 0.04-0.15 0.08-0.22 0.12-0.25 0.14-0.5 0.28-0.76 0.43-0.09 0.05-0.17 0.1-0.26 0.15-0.32 0.19-0.63 0.38-0.95 0.59 3.72-1.64 10.68-1.16 12.67 0.04 2.24 1.34 3.81 0.45 3.36-2.24-0.1-0.39-0.3-0.78-0.55-1.14zm100.42 43.06c0-0.03-0.01-0.05-0.01-0.07-0.01-0.03-0.02-0.05-0.03-0.07l-0.03-0.06c-0.01-0.02-0.03-0.04-0.05-0.06-0.01-0.02-0.03-0.03-0.04-0.05-0.02-0.02-0.05-0.04-0.08-0.05-0.02-0.01-0.03-0.02-0.05-0.03-0.05-0.03-0.1-0.05-0.16-0.06-0.01 0-0.03-0.01-0.05-0.01l-0.15-0.03c-0.03 0-0.06 0-0.09-0.01-0.05 0-0.09-0.01-0.15-0.01h-0.11-0.16c-0.04 0-0.09 0.01-0.13 0.01-0.06 0-0.12 0.01-0.18 0.02-0.05 0.01-0.09 0.01-0.14 0.02-0.07 0.01-0.14 0.02-0.21 0.03l-0.15 0.03c-0.08 0.02-0.17 0.03-0.25 0.05-0.05 0.01-0.09 0.02-0.14 0.03-0.14 0.03-0.28 0.06-0.43 0.1-2.56 0.65-4.46 0.88-5.69 0.66-1.24-0.21-1.99-0.72-2.27-1.53-0.04-0.11-0.07-0.24-0.1-0.38-0.01-0.04-0.01-0.08-0.02-0.11-0.02-0.11-0.04-0.24-0.05-0.37 0-0.04-0.01-0.08-0.01-0.12-0.01-0.15-0.02-0.3-0.03-0.47v-0.09c0-0.2 0-0.42 0.01-0.65-0.37 3.65 0.24 8.45 10.86 3.85 0.02-0.04 0.03-0.08 0.04-0.12 0.01-0.03 0.02-0.06 0.03-0.08 0.01-0.04 0.02-0.07 0.02-0.1 0.01-0.03 0.01-0.06 0.01-0.09v-0.08c0-0.05 0-0.08-0.01-0.1z"/><path class="st12" d="m178.95 128.43c-7.17-4.2-12.43 6.53-4.35 19.65 12.5-6.94 15.77-20.53 7.08-16.25-8.7 4.29-2.73-3.4-2.73-3.4"/><path class="st2" d="m171.02 139.64c-0.09-0.4-0.17-0.8-0.24-1.19-0.01-0.04-0.01-0.08-0.02-0.12-0.06-0.37-0.11-0.73-0.14-1.09-0.01-0.06-0.01-0.11-0.02-0.17-0.03-0.34-0.05-0.67-0.07-1 0-0.06 0-0.13-0.01-0.19-0.01-0.32-0.01-0.63 0.01-0.93v-0.07l-100.26 4.79v10.43l102.32-5.76c-0.72-1.61-1.23-3.16-1.57-4.63 0.01-0.03 0.01-0.05 0-0.07z"/><path class="st0" d="m172.42 143.88c-0.04-0.08-0.07-0.16-0.1-0.24 0.03 0.08 0.06 0.16 0.1 0.24zm-0.53-1.35c-0.03-0.09-0.06-0.17-0.1-0.26 0.03 0.09 0.06 0.17 0.1 0.26zm0.71 1.79-102.32 5.76v8.61l102.73-13.5c-0.21-0.44-0.41-0.88-0.59-1.31 0.06 0.15 0.12 0.29 0.18 0.44zm-0.28-0.68c-0.15-0.37-0.3-0.74-0.43-1.11 0.13 0.36 0.27 0.73 0.43 1.11zm-0.53-1.37c-0.13-0.36-0.24-0.72-0.35-1.07 0.11 0.35 0.22 0.71 0.35 1.07zm-0.42-1.31c-0.13-0.43-0.24-0.85-0.33-1.26 0.09 0.41 0.2 0.83 0.33 1.26zm0.07 0.24c-0.02-0.08-0.05-0.16-0.07-0.24 0.02 0.08 0.05 0.16 0.07 0.24z"/><path d="m66.94 194.51c-0.59 1-1.98 2.05-3.81 2.05-2.5 0-4.53-1.9-4.53-4.51s2.03-4.52 4.53-4.52c1.86 0.01 3.19 1.11 3.82 2.1h-0.41c-0.33-0.46-1.47-1.77-3.41-1.78-2.31 0-4.18 1.78-4.18 4.2s1.86 4.2 4.18 4.2c2.04 0 3.16-1.39 3.41-1.73h0.4z"/><path d="m68.1 193.32c0.02 2.04 1.73 2.95 2.96 2.93 1.16 0 2.17-0.59 2.67-1.65h0.37c-0.58 1.33-1.78 1.97-3.05 1.96-1.91 0-3.29-1.41-3.29-3.28v0.01c0-1.87 1.44-3.29 3.3-3.29 1.67 0 3.2 1.2 3.28 3.13l-0.01 0.18h-6.23zm5.9-0.3c-0.07-1.51-1.48-2.76-2.94-2.7-1.55 0-2.86 1.12-2.95 2.7z"/><path d="m75.95 191.37h0.02c0.39-0.91 1.52-1.38 2.51-1.36 0.8 0 1.46 0.21 1.96 0.62 0.61 0.52 0.91 1.36 0.91 2.48v3.3h-0.33v-3.3c0-1.08-0.29-1.78-0.77-2.21-0.48-0.44-1.13-0.59-1.77-0.59-1.57 0.02-2.54 0.93-2.54 2.5v3.6h-0.33v-6.25h0.33v1.21z"/><path d="m83.72 187.69h0.33v2.48h1.6v0.31h-1.6v5.94h-0.33v-5.94h-1.38v-0.31h1.38z"/><path d="m87 191.29h0.02c0.57-1.18 1.64-1.25 2.18-1.28v0.32c-0.38 0.01-0.8 0.04-1.37 0.44-0.74 0.67-0.84 1.4-0.84 2.26v3.38h-0.33v-6.25h0.34z"/><path d="m89.43 193.32c0.03 2.04 1.74 2.95 2.96 2.93 1.16 0 2.17-0.59 2.67-1.65h0.37c-0.58 1.33-1.78 1.97-3.04 1.96-1.91 0-3.29-1.41-3.29-3.28v0.01c0-1.87 1.44-3.29 3.3-3.29 1.68 0 3.2 1.2 3.28 3.13l-0.01 0.18h-6.24zm5.9-0.3c-0.07-1.51-1.48-2.76-2.94-2.7-1.55 0-2.86 1.12-2.95 2.7z"/><path d="m100.56 191.86h4.88v-4.17h0.35v8.72h-0.35v-4.23h-4.88v4.23h-0.35v-8.72h0.35z"/><path d="m110.49 190.01c1.88 0 3.29 1.41 3.29 3.28s-1.42 3.28-3.29 3.28c-1.88 0-3.29-1.4-3.29-3.28-0.01-1.87 1.41-3.28 3.29-3.28zm0 6.25c1.69 0 2.96-1.27 2.96-2.97s-1.27-2.97-2.96-2.97-2.96 1.27-2.96 2.97c-0.01 1.69 1.27 2.97 2.96 2.97z"/><path d="m115.17 194.68c0 1 0.68 1.58 1.59 1.58 0.93 0 1.52-0.71 1.5-1.52-0.02-0.86-0.49-1.27-1.51-1.5-0.94-0.27-1.65-0.54-1.69-1.62 0-1.04 0.77-1.61 1.7-1.61 0.91 0.01 1.65 0.55 1.65 1.63h-0.33c0-0.94-0.65-1.33-1.32-1.32-0.84 0-1.4 0.56-1.37 1.31 0.04 0.76 0.48 1.04 1.37 1.29 0.82 0.22 1.76 0.45 1.83 1.78 0.06 1.02-0.76 1.87-1.83 1.87-1.04 0-1.99-0.74-1.92-1.88h0.33z"/><path d="m120.22 190.16h0.33v1.56h0.02c0.54-1.06 1.58-1.71 2.9-1.71 2.05 0 3.29 1.59 3.29 3.28 0 1.72-1.27 3.28-3.29 3.28-1.51 0-2.6-0.93-2.9-1.74h-0.02v4.1h-0.33zm0.3 3.13c0 1.71 1.29 2.97 2.96 2.97 1.63 0 2.96-1.21 2.96-2.97-0.01-1.42-0.98-2.97-3-2.97-1.72 0-2.92 1.35-2.92 2.97z"/><path d="m128.54 188.76h-0.33v-1.07h0.33zm0 7.65h-0.33v-6.25h0.33z"/><path d="m130.92 187.69h0.33v2.48h1.6v0.31h-1.6v5.94h-0.33v-5.94h-1.38v-0.31h1.38z"/><path d="m139.98 196.41h-0.33v-1.56h-0.02c-0.54 1.06-1.58 1.71-2.9 1.71-2.05 0-3.29-1.59-3.29-3.28 0-1.72 1.27-3.28 3.29-3.28 1.51 0 2.6 0.93 2.9 1.74h0.02v-1.59h0.33zm-0.29-3.12c0-1.71-1.29-2.97-2.96-2.97-1.63 0-2.96 1.21-2.96 2.97 0.01 1.41 0.98 2.97 3 2.97 1.72 0 2.92-1.36 2.92-2.97z"/><path d="m142.15 196.41h-0.33v-8.72h0.33z"/><path d="m144.31 188.76h-0.33v-1.07h0.33zm0 7.65h-0.33v-6.25h0.33z"/><path d="m145.94 193.32c0.03 2.04 1.74 2.95 2.96 2.93 1.16 0 2.17-0.59 2.67-1.65h0.37c-0.58 1.33-1.78 1.97-3.04 1.96-1.91 0-3.29-1.41-3.29-3.28v0.01c0-1.87 1.44-3.29 3.3-3.29 1.67 0 3.2 1.2 3.28 3.13l-0.01 0.18h-6.24zm5.9-0.3c-0.07-1.51-1.47-2.76-2.94-2.7-1.55 0-2.86 1.12-2.95 2.7z"/><path d="m153.79 191.29h0.02c0.57-1.18 1.64-1.25 2.18-1.28v0.32c-0.38 0.01-0.8 0.04-1.37 0.44-0.74 0.67-0.84 1.4-0.84 2.26v3.38h-0.33v-6.25h0.33v1.13z"/><path d="m160.27 187.69h0.35v5.66c0 0.85 0 1.39 0.54 2.1 0.38 0.49 1.1 0.8 1.79 0.8 0.66 0 1.38-0.31 1.76-0.8 0.54-0.71 0.54-1.25 0.54-2.1v-5.66h0.36v5.66c0.01 0.79-0.03 1.97-1.05 2.69-0.45 0.33-1.03 0.53-1.63 0.53-0.59 0-1.17-0.2-1.62-0.53-1.03-0.72-1.06-1.9-1.05-2.69v-5.66z"/><path d="m167.76 191.37h0.02c0.39-0.91 1.52-1.38 2.51-1.36 0.8 0 1.46 0.21 1.96 0.62 0.62 0.52 0.91 1.36 0.91 2.48v3.3h-0.33v-3.3c0-1.08-0.29-1.78-0.77-2.21-0.48-0.44-1.13-0.59-1.77-0.59-1.57 0.02-2.54 0.93-2.54 2.5v3.6h-0.33v-6.25h0.33v1.21z"/><path d="m175.32 188.76h-0.33v-1.07h0.33zm0 7.65h-0.33v-6.25h0.33z"/><path d="m176.29 190.16h0.34l2.44 5.86 2.41-5.86h0.38l-2.57 6.25h-0.42z"/><path d="m182.63 193.32c0.02 2.04 1.73 2.95 2.96 2.93 1.16 0 2.17-0.59 2.67-1.65h0.37c-0.58 1.33-1.78 1.97-3.04 1.96-1.91 0-3.29-1.41-3.29-3.28v0.01c0-1.87 1.44-3.29 3.3-3.29 1.68 0 3.2 1.2 3.28 3.13l-0.01 0.18h-6.24zm5.9-0.3c-0.07-1.51-1.47-2.76-2.94-2.7-1.54 0-2.85 1.12-2.95 2.7z"/><path d="m190.47 191.29h0.02c0.57-1.18 1.64-1.25 2.18-1.28v0.32c-0.38 0.01-0.8 0.04-1.37 0.44-0.74 0.67-0.84 1.4-0.84 2.26v3.38h-0.33v-6.25h0.33v1.13z"/><path d="m193.68 194.68c0 1 0.68 1.58 1.59 1.58 0.93 0 1.52-0.71 1.5-1.52-0.02-0.86-0.49-1.27-1.51-1.5-0.94-0.27-1.65-0.54-1.69-1.62 0-1.04 0.77-1.61 1.7-1.61 0.91 0.01 1.65 0.55 1.65 1.63h-0.33c0-0.94-0.65-1.33-1.32-1.32-0.84 0-1.4 0.56-1.37 1.31 0.04 0.76 0.48 1.04 1.37 1.29 0.83 0.22 1.76 0.45 1.83 1.78 0.06 1.02-0.75 1.87-1.83 1.87-1.04 0-1.99-0.74-1.92-1.88h0.33z"/><path d="m199.06 188.76h-0.33v-1.07h0.33zm0 7.65h-0.33v-6.25h0.33z"/><path d="m201.45 187.69h0.33v2.48h1.61v0.31h-1.61v5.94h-0.33v-5.94h-1.38v-0.31h1.38z"/><path d="m210.51 196.41h-0.33v-1.56h-0.02c-0.54 1.06-1.58 1.71-2.9 1.71-2.05 0-3.29-1.59-3.29-3.28 0-1.72 1.27-3.28 3.29-3.28 1.51 0 2.6 0.93 2.9 1.74h0.02v-1.59h0.33zm-0.3-3.12c0-1.71-1.29-2.97-2.96-2.97-1.63 0-2.96 1.21-2.96 2.97 0.01 1.41 0.98 2.97 3 2.97 1.72 0 2.92-1.36 2.92-2.97z"/><path d="m212.68 188.76h-0.33v-1.07h0.33zm0 7.65h-0.33v-6.25h0.33z"/><path d="m214.85 191.29h0.02c0.57-1.18 1.64-1.25 2.18-1.28v0.32c-0.38 0.01-0.8 0.04-1.37 0.44-0.74 0.67-0.84 1.4-0.84 2.26v3.38h-0.33v-6.25h0.33v1.13z"/><path d="m217.28 193.32c0.02 2.04 1.73 2.95 2.96 2.93 1.16 0 2.17-0.59 2.67-1.65h0.37c-0.58 1.33-1.78 1.97-3.04 1.96-1.91 0-3.29-1.41-3.29-3.28v0.01c0-1.87 1.44-3.29 3.3-3.29 1.68 0 3.2 1.2 3.28 3.13l-0.01 0.18h-6.24zm5.9-0.3c-0.07-1.51-1.47-2.76-2.94-2.7-1.54 0-2.86 1.12-2.95 2.7z"/>
	<path class="st10" d="m57.8 201.24h3.52c2.77 0 4.95 0.69 6.53 2.07s2.37 3.26 2.37 5.66c0 2.5-0.76 4.46-2.29 5.89-1.52 1.43-3.62 2.14-6.28 2.14h-3.85zm2.86 13.05h1c1.82 0 3.22-0.45 4.21-1.35s1.49-2.17 1.49-3.81c0-1.65-0.52-2.92-1.57-3.82s-2.54-1.35-4.46-1.35h-0.66v10.33z"/>
	<path class="st10" d="m72.24 201.24h2.79v2.6h-2.79zm0 3.94h2.79v11.82h-2.79z"/>
	<path class="st10" d="m77.64 205.18h2.79v11.12c0 1.55-0.37 2.72-1.11 3.51-0.65 0.69-1.6 1.08-2.83 1.16v-2.83c0.44 0 0.74-0.13 0.9-0.38 0.17-0.26 0.25-0.74 0.25-1.46zm0.01-3.94h2.79v2.6h-2.79z"/>
	<path class="st10" d="m83.9 215.56c-1.2-1.22-1.8-2.71-1.8-4.46s0.6-3.24 1.8-4.47 2.66-1.85 4.37-1.85c1.72 0 3.17 0.62 4.38 1.85 1.2 1.23 1.8 2.72 1.8 4.47s-0.6 3.23-1.8 4.46c-1.2 1.22-2.66 1.84-4.38 1.84-1.71 0-3.17-0.62-4.37-1.84zm6.78-1.81c0.65-0.71 0.97-1.59 0.97-2.64s-0.32-1.94-0.97-2.65-1.45-1.07-2.41-1.07c-0.95 0-1.75 0.36-2.4 1.07s-0.97 1.6-0.97 2.65 0.32 1.93 0.97 2.64 1.45 1.06 2.4 1.06c0.96 0 1.76-0.36 2.41-1.06z"/>
	<path class="st10" d="m96.1 205.18h2.6v1.02c0.9-0.94 1.97-1.41 3.23-1.41 1.38 0 2.47 0.47 3.27 1.42 0.81 0.95 1.21 2.22 1.21 3.83v6.96h-2.79v-6.33c0-1.08-0.2-1.9-0.59-2.46s-0.97-0.84-1.73-0.84c-0.8 0-1.41 0.28-1.81 0.85s-0.6 1.42-0.6 2.56v6.22h-2.79z"/>
	<path class="st10" d="m114.83 201.24h3.88c1.61 0 2.89 0.37 3.84 1.11 0.96 0.74 1.43 1.74 1.43 2.99 0 1.19-0.48 2.15-1.44 2.86l-0.29 0.2c0.37 0.17 0.72 0.37 1.03 0.6 1.07 0.8 1.6 1.87 1.6 3.21 0 1.46-0.52 2.62-1.55 3.48-1.04 0.87-2.42 1.3-4.15 1.3h-4.37v-15.75zm2.86 6.14h1.02c0.8 0 1.41-0.14 1.81-0.43 0.4-0.28 0.6-0.71 0.6-1.28s-0.2-1-0.6-1.28c-0.4-0.29-1-0.43-1.81-0.43h-1.02zm0 6.91h1.51c0.94 0 1.65-0.18 2.12-0.53s0.71-0.87 0.71-1.57-0.25-1.23-0.76-1.58-1.27-0.53-2.28-0.53h-1.3z"/>
	<path class="st10" d="m127.82 215.56c-1.2-1.22-1.8-2.71-1.8-4.46s0.6-3.24 1.8-4.47 2.66-1.85 4.37-1.85c1.72 0 3.17 0.62 4.38 1.85 1.2 1.23 1.8 2.72 1.8 4.47s-0.6 3.23-1.8 4.46c-1.2 1.22-2.66 1.84-4.38 1.84-1.71 0-3.17-0.62-4.37-1.84zm6.78-1.81c0.65-0.71 0.97-1.59 0.97-2.64s-0.32-1.94-0.97-2.65-1.45-1.07-2.41-1.07c-0.95 0-1.75 0.36-2.4 1.07s-0.97 1.6-0.97 2.65 0.32 1.93 0.97 2.64 1.45 1.06 2.4 1.06c0.96 0 1.76-0.36 2.41-1.06z"/>
	<path class="st10" d="m142.72 211.5c0 1.08 0.2 1.91 0.59 2.47 0.39 0.57 0.97 0.85 1.74 0.85 0.81 0 1.42-0.28 1.82-0.85 0.41-0.57 0.61-1.42 0.61-2.56v-6.22h2.79v11.81h-2.6v-1.05c-0.88 0.96-1.96 1.45-3.25 1.45-1.38 0-2.47-0.47-3.28-1.42s-1.22-2.23-1.22-3.84v-6.95h2.79v6.31z"/>
	<path class="st10" d="m152.75 205.18h2.6v0.89l0.13-0.19c0.52-0.74 1.32-1.1 2.4-1.1h0.18v2.71c-0.78 0.05-1.38 0.26-1.8 0.62-0.48 0.43-0.72 1.11-0.72 2.04v6.85h-2.79z"/>
	<path class="st10" d="m164.9 219.23c1.1 0 1.99-0.38 2.68-1.13 0.6-0.66 0.94-1.5 1.01-2.51-1.14 1.21-2.5 1.81-4.06 1.81-1.58 0-2.93-0.61-4.04-1.84-1.12-1.22-1.67-2.71-1.67-4.46s0.56-3.24 1.67-4.47c1.12-1.23 2.47-1.85 4.05-1.85 1.55-0.01 2.86 0.57 3.93 1.72v-1.32h2.7v9.6c0 2.12-0.58 3.82-1.74 5.11-1.16 1.28-2.7 1.92-4.62 1.92-1.39 0-2.61-0.36-3.65-1.07s-1.74-1.66-2.1-2.84h3.24c0.2 0.4 0.53 0.72 1.01 0.96 0.45 0.25 0.99 0.37 1.59 0.37zm0.08-11.87c-0.96 0-1.76 0.36-2.41 1.08s-0.97 1.61-0.97 2.67c0 1.05 0.32 1.94 0.97 2.65s1.45 1.07 2.4 1.07c0.96 0 1.76-0.36 2.42-1.07 0.65-0.71 0.98-1.6 0.98-2.66s-0.32-1.95-0.97-2.66c-0.66-0.73-1.46-1.08-2.42-1.08z"/>
	<path class="st10" d="m174.26 215.56c-1.2-1.22-1.8-2.71-1.8-4.46s0.6-3.24 1.8-4.47 2.66-1.85 4.37-1.85c1.72 0 3.17 0.62 4.38 1.85 1.2 1.23 1.8 2.72 1.8 4.47s-0.6 3.23-1.8 4.46c-1.2 1.22-2.66 1.84-4.38 1.84s-3.17-0.62-4.37-1.84zm6.77-1.81c0.65-0.71 0.97-1.59 0.97-2.64s-0.32-1.94-0.97-2.65-1.45-1.07-2.41-1.07c-0.95 0-1.75 0.36-2.4 1.07s-0.97 1.6-0.97 2.65 0.32 1.93 0.97 2.64 1.45 1.06 2.4 1.06c0.96 0 1.76-0.36 2.41-1.06z"/>
	<path class="st10" d="m192.09 219.23c1.1 0 1.99-0.38 2.68-1.13 0.6-0.66 0.94-1.5 1.01-2.51-1.14 1.21-2.5 1.81-4.06 1.81-1.58 0-2.93-0.61-4.04-1.84-1.12-1.22-1.67-2.71-1.67-4.46s0.56-3.24 1.67-4.47c1.12-1.23 2.47-1.85 4.05-1.85 1.55-0.01 2.86 0.57 3.93 1.72v-1.32h2.7v9.6c0 2.12-0.58 3.82-1.74 5.11-1.16 1.28-2.7 1.92-4.62 1.92-1.39 0-2.61-0.36-3.65-1.07s-1.74-1.66-2.1-2.84h3.24c0.2 0.4 0.53 0.72 1.01 0.96 0.46 0.25 0.99 0.37 1.59 0.37zm0.08-11.87c-0.96 0-1.76 0.36-2.41 1.08s-0.97 1.61-0.97 2.67c0 1.05 0.32 1.94 0.97 2.65s1.45 1.07 2.4 1.07c0.96 0 1.76-0.36 2.42-1.07 0.65-0.71 0.98-1.6 0.98-2.66s-0.32-1.95-0.97-2.66c-0.65-0.73-1.46-1.08-2.42-1.08z"/>
	<path class="st10" d="m200.26 205.18h2.6v1.02c0.9-0.94 1.97-1.41 3.23-1.41 1.38 0 2.47 0.47 3.27 1.42 0.81 0.95 1.21 2.22 1.21 3.83v6.96h-2.79v-6.33c0-1.08-0.2-1.9-0.59-2.46s-0.97-0.84-1.73-0.84c-0.8 0-1.41 0.28-1.81 0.85s-0.6 1.42-0.6 2.56v6.22h-2.79z"/>
	<path class="st10" d="m218.38 217.4c-1.67 0-3.1-0.61-4.28-1.84-1.18-1.22-1.77-2.71-1.77-4.46s0.59-3.24 1.77-4.47 2.61-1.85 4.28-1.85c1.68 0 3.11 0.62 4.29 1.85s1.77 2.72 1.77 4.47c0 0.42-0.03 0.84-0.1 1.25h-9.05c0.16 0.51 0.42 0.98 0.79 1.39 0.63 0.71 1.42 1.06 2.37 1.06 0.58 0 1.12-0.14 1.61-0.42s0.85-0.65 1.08-1.11h2.94c-0.38 1.26-1.08 2.26-2.11 3-1.05 0.75-2.24 1.13-3.59 1.13zm3.15-7.32c-0.14-0.62-0.41-1.17-0.83-1.63-0.63-0.71-1.4-1.07-2.33-1.07s-1.7 0.36-2.33 1.07c-0.4 0.47-0.68 1.02-0.84 1.63z"/>
</g>
</svg>
