<svg xmlns="http://www.w3.org/2000/svg" xmlns:xlink="http://www.w3.org/1999/xlink" width="378.0597mm" height="247.6243mm" viewBox="0 0 1071.6652 701.927">
  <defs>
    <linearGradient id="Dégradé_sans_nom_397" data-name="Dégradé sans nom 397" x1="643.1895" y1="190.3607" x2="643.1895" y2="517.7143" gradientUnits="userSpaceOnUse">
      <stop offset="0.0425" stop-color="#7d7e81"/>
      <stop offset="0.2272" stop-color="#b6b7b9"/>
      <stop offset="0.4141" stop-color="#ebebeb"/>
      <stop offset="0.5056" stop-color="#fff"/>
      <stop offset="0.5829" stop-color="#fafafa"/>
      <stop offset="0.675" stop-color="#ebecec"/>
      <stop offset="0.7747" stop-color="#d3d4d5"/>
      <stop offset="0.879" stop-color="#b2b4b6"/>
      <stop offset="0.96" stop-color="#939598"/>
    </linearGradient>
    <linearGradient id="Dégradé_sans_nom_391" data-name="Dégradé sans nom 391" x1="-32.4454" y1="403.6384" x2="-24.5297" y2="494.1153" gradientTransform="translate(704.748 -47.5059)" gradientUnits="userSpaceOnUse">
      <stop offset="0" stop-color="#9d9fa2"/>
      <stop offset="0.2126" stop-color="#231f20"/>
      <stop offset="0.8061" stop-color="#231f20"/>
    </linearGradient>
    <linearGradient id="Dégradé_sans_nom_396" data-name="Dégradé sans nom 396" x1="642.708" y1="3.8528" x2="642.708" y2="330.1732" gradientUnits="userSpaceOnUse">
      <stop offset="0.04" stop-color="#dadbdc"/>
      <stop offset="0.1147" stop-color="#d5d6d7"/>
      <stop offset="0.2037" stop-color="#c7c8ca"/>
      <stop offset="0.25" stop-color="#bcbec0"/>
      <stop offset="0.4156" stop-color="#ebebec"/>
      <stop offset="0.5056" stop-color="#fff"/>
      <stop offset="0.5524" stop-color="#f9f9f9"/>
      <stop offset="0.6137" stop-color="#e9e9e9"/>
      <stop offset="0.6831" stop-color="#cfcece"/>
      <stop offset="0.7583" stop-color="#a9a8a8"/>
      <stop offset="0.8384" stop-color="#7a7778"/>
      <stop offset="0.9213" stop-color="#403d3e"/>
      <stop offset="0.96" stop-color="#231f20"/>
    </linearGradient>
    <linearGradient id="Dégradé_sans_nom_395" data-name="Dégradé sans nom 395" x1="685.3441" y1="329.9837" x2="685.3441" y2="25.4461" gradientUnits="userSpaceOnUse">
      <stop offset="0.04" stop-color="#231f20"/>
      <stop offset="0.0471" stop-color="#302d2e"/>
      <stop offset="0.0725" stop-color="#5b5859"/>
      <stop offset="0.1006" stop-color="#838081"/>
      <stop offset="0.1307" stop-color="#a4a3a3"/>
      <stop offset="0.1635" stop-color="#c1c0c0"/>
      <stop offset="0.2" stop-color="#d8d7d7"/>
      <stop offset="0.2414" stop-color="#e9e9e9"/>
      <stop offset="0.2911" stop-color="#f6f6f6"/>
      <stop offset="0.3571" stop-color="#fdfdfd"/>
      <stop offset="0.5056" stop-color="#fff"/>
      <stop offset="0.6515" stop-color="#fdfdfd"/>
      <stop offset="0.7321" stop-color="#f5f5f5"/>
      <stop offset="0.7967" stop-color="#e7e7e8"/>
      <stop offset="0.8529" stop-color="#d3d4d5"/>
      <stop offset="0.9035" stop-color="#babbbd"/>
      <stop offset="0.9496" stop-color="#9b9da0"/>
      <stop offset="0.9605" stop-color="#939598"/>
    </linearGradient>
    <linearGradient id="Dégradé_sans_nom_394" data-name="Dégradé sans nom 394" x1="600.5609" y1="494.8487" x2="600.5609" y2="190.4041" gradientUnits="userSpaceOnUse">
      <stop offset="0.0405" stop-color="#6d6e71"/>
      <stop offset="0.0572" stop-color="#818285"/>
      <stop offset="0.0899" stop-color="#a3a3a5"/>
      <stop offset="0.1263" stop-color="#c0c0c1"/>
      <stop offset="0.1666" stop-color="#d7d7d8"/>
      <stop offset="0.2126" stop-color="#e9e9ea"/>
      <stop offset="0.2677" stop-color="#f6f6f6"/>
      <stop offset="0.3409" stop-color="#fdfdfd"/>
      <stop offset="0.5056" stop-color="#fff"/>
      <stop offset="0.5835" stop-color="#fcfcfc"/>
      <stop offset="0.6462" stop-color="#f2f2f2"/>
      <stop offset="0.7034" stop-color="#e1e1e1"/>
      <stop offset="0.7576" stop-color="#cac9c9"/>
      <stop offset="0.8095" stop-color="#acaaab"/>
      <stop offset="0.8597" stop-color="#878485"/>
      <stop offset="0.9087" stop-color="#5b5858"/>
      <stop offset="0.9554" stop-color="#292526"/>
      <stop offset="0.9605" stop-color="#231f20"/>
    </linearGradient>
    <linearGradient id="Dégradé_sans_nom_393" data-name="Dégradé sans nom 393" x1="389.3183" y1="328.0774" x2="389.3183" y2="16.7072" gradientUnits="userSpaceOnUse">
      <stop offset="0.04" stop-color="#231f20"/>
      <stop offset="0.0671" stop-color="#484546"/>
      <stop offset="0.103" stop-color="#737071"/>
      <stop offset="0.1417" stop-color="#999797"/>
      <stop offset="0.1828" stop-color="#b8b7b7"/>
      <stop offset="0.2268" stop-color="#d2d1d2"/>
      <stop offset="0.2751" stop-color="#e6e6e6"/>
      <stop offset="0.3296" stop-color="#f4f4f4"/>
      <stop offset="0.3957" stop-color="#fdfcfc"/>
      <stop offset="0.5056" stop-color="#fff"/>
      <stop offset="0.6185" stop-color="#fdfdfd"/>
      <stop offset="0.6808" stop-color="#f5f5f5"/>
      <stop offset="0.7308" stop-color="#e7e7e7"/>
      <stop offset="0.7742" stop-color="#d3d3d3"/>
      <stop offset="0.8135" stop-color="#bababa"/>
      <stop offset="0.8497" stop-color="#9b9b9b"/>
      <stop offset="0.8835" stop-color="#767676"/>
      <stop offset="0.9155" stop-color="#4a4a4a"/>
      <stop offset="0.945" stop-color="#1b1b1b"/>
      <stop offset="0.96"/>
    </linearGradient>
    <linearGradient id="Dégradé_sans_nom_391-2" x1="1300.3025" y1="179.1052" x2="1308.2534" y2="269.9849" gradientTransform="matrix(-1, 0, 0, 1, 1912.1026, 0)" xlink:href="#Dégradé_sans_nom_391"/>
    <linearGradient id="Dégradé_sans_nom_18" data-name="Dégradé sans nom 18" x1="430.4601" y1="3.9187" x2="430.4601" y2="341.0098" gradientUnits="userSpaceOnUse">
      <stop offset="0.0405" stop-color="#6d6e71"/>
      <stop offset="0.1186" stop-color="#7f8083"/>
      <stop offset="0.2764" stop-color="#afb0b2"/>
      <stop offset="0.4975" stop-color="#fcfcfc"/>
      <stop offset="0.5056" stop-color="#fff"/>
      <stop offset="0.5771" stop-color="#ececec"/>
      <stop offset="0.722" stop-color="#bbbcbc"/>
      <stop offset="0.9256" stop-color="#6d6e70"/>
      <stop offset="0.96" stop-color="#5f6062"/>
    </linearGradient>
    <linearGradient id="Dégradé_sans_nom_391-3" x1="460.2059" y1="179.2065" x2="468.1424" y2="269.9207" gradientTransform="matrix(1, 0, 0, 1, 0, 0)" xlink:href="#Dégradé_sans_nom_391"/>
    <linearGradient id="Dégradé_sans_nom_2" data-name="Dégradé sans nom 2" x1="383.0753" y1="14.2119" x2="383.0753" y2="330.5892" gradientUnits="userSpaceOnUse">
      <stop offset="0.0182" stop-color="#f6f6f6"/>
      <stop offset="0.47" stop-color="#e4e5e6"/>
      <stop offset="0.9617" stop-color="#666"/>
    </linearGradient>
  </defs>
  <title>ds-autos</title>
  <g id="Calque_2" data-name="Calque 2">
    <g id="Monogram_name" data-name="Monogram + name">
      <g>
        <path d="M1009.5381,670.7307c0,20.8866,9.7735,31.1963,31.4654,31.1963,19.8157,0,30.6617-10.5769,30.6617-28.3856,0-17.9415-6.2938-26.1079-22.8955-31.1964l-8.7043-2.6778c-9.9079-3.08-13.522-6.6955-13.522-16.3345,0-8.4353,4.2831-12.4529,13.3892-12.4529,10.7115,0,14.3257,4.6866,14.593,15.3981h15.2653c0-20.2176-9.91-29.0547-30.1272-29.0547-19.0123,0-28.5185,11.246-28.5185,26.9114,0,16.8707,7.0956,24.637,23.2972,29.5909l9.2388,2.8124c9.239,2.8106,12.5858,7.4973,12.5858,17.54,0,9.3717-4.15,14.1928-15.2635,14.1928-11.7824,0-16.0673-5.8919-16.2017-17.54ZM940.45,700.4544h52.6209V686.5289H955.7137V655.1981h31.7325V641.407H955.7137V612.6213h35.75V598.6957H940.45Zm-69.89,0h49.8085V686.5289h-34.545V598.6957H870.56Zm-43.38,0h15.2636V598.6957H827.18Zm-52.2175-45.2563c8.4353,0,12.8547,6.0264,12.8547,16.8707,0,9.9079-4.5522,15.1308-13.2564,15.1308H758.2261V655.1981Zm-1.3381-43.2475c7.7663,0,12.3185,5.49,12.3185,15.1308,0,9.5062-4.0176,14.8619-11.6495,14.8619H758.2261V611.9506Zm-30.5273,88.5038h32.5362c18.0742,0,27.7149-9.9079,27.7149-27.8494,0-12.72-4.6867-21.1556-14.1929-24.2352,8.1681-3.7487,11.65-12.5858,11.65-23.4317,0-17.0035-9.2389-26.2424-26.11-26.2424H743.0969ZM684.9876,611.147c11.3821,0,17.5414,6.561,17.5414,18.7451v39.366c0,12.184-6.1593,18.745-17.5414,18.745s-17.54-6.561-17.54-18.745v-39.366c0-12.1841,6.1592-18.7451,17.54-18.7451m0-13.9238c-20.6194,0-32.8034,12.4513-32.8034,33.2051v38.6953c0,20.4849,12.184,32.8034,32.8034,32.8034s32.805-12.3185,32.805-32.8034V630.4283c0-20.7538-12.1857-33.2051-32.805-33.2051M547.7493,700.4544h14.46V622.931L580.82,672.2033h13.122L612.42,623.0638v77.3906h14.46V598.6957H608.9383l-21.1556,57.7077-21.2884-57.7077h-18.745ZM489.64,611.147c11.3822,0,17.54,6.561,17.54,18.7451v39.366c0,12.184-6.1575,18.745-17.54,18.745-11.38,0-17.54-6.561-17.54-18.745v-39.366c0-12.1841,6.1593-18.7451,17.54-18.7451m0-13.9238c-20.6193,0-32.8034,12.4513-32.8034,33.2051v38.6953c0,20.4849,12.1841,32.8034,32.8034,32.8034s32.805-12.3185,32.805-32.8034V630.4283c0-20.7538-12.1856-33.2051-32.805-33.2051M400.87,700.4544h15.2637V612.4868h25.0387V598.6957H375.9662v13.7911H400.87ZM356.5521,670.06V598.6957H341.2885v72.4367c0,12.3169-5.49,16.8707-15.8,16.8707s-15.9327-4.5538-15.9327-16.8707V598.6957H294.2923V670.06c0,20.352,10.7114,31.867,31.1963,31.867,20.4866,0,31.0635-11.515,31.0635-31.867M226.6767,659.0812l11.2461-47.5324,11.1131,47.5324Zm32,41.3732h15.8L249.3049,598.6957H226.944L202.04,700.4544h14.9963l6.561-27.9839h28.5185ZM81.6722,670.7307c0,20.8866,9.7751,31.1963,31.4653,31.1963,19.8158,0,30.6617-10.5769,30.6617-28.3856,0-17.9415-6.2937-26.1079-22.8954-31.1964l-8.7026-2.6778c-9.9079-3.08-13.5238-6.6955-13.5238-16.3345,0-8.4353,4.2849-12.4529,13.3893-12.4529,10.7114,0,14.3273,4.6866,14.5946,15.3981h15.2636c0-20.2176-9.9079-29.0547-30.1255-29.0547-19.014,0-28.52,11.246-28.52,26.9114,0,16.8707,7.0972,24.637,23.2972,29.5909l9.2389,2.8124c9.2388,2.8106,12.5857,7.4973,12.5857,17.54,0,9.3717-4.15,14.1928-15.2636,14.1928-11.7823,0-16.0672-5.8919-16.2-17.54ZM28.7874,612.3523c11.515,0,17.807,6.561,17.807,18.7451v36.9554c0,12.184-6.292,18.7451-17.807,18.7451H14.9964V612.3523ZM0,700.4544H29.0547c20.6194,0,32.8034-12.0512,32.8034-32.2688V631.3663c0-20.4865-12.184-32.6706-32.8034-32.6706H0Z" fill="#fff"/>
        <g>
          <g>
            <g>
              <path d="M743.565,340.5723c-1.85-1.7462-10.7585-9.399-10.7585-9.399L552.011,190.3607c31.4707,30.8275,77.0117,80.9152,91.5633,125.0127a108.2369,108.2369,0,0,1,5.8325,33.7873c0,9.2643-1.9718,18.4972-5.8618,28.3293-7.1674,18.1086-22.5463,39.2551-45.7128,62.8478-8.0552,8.2026-42.3932,41.499-53.7554,52.5051h0a17.5832,17.5832,0,0,0-4.844,9.3558c-.042.24-.086.4746-.126.7222-.0381.2306-.0732.4688-.1074.707-.0576.3894-.1074,5.9492-.1563,6.3711-.0293.2539-.06.51-.0849.7715-.045.459-.0791.9337-.11,1.4122-.0166.2363-.0371.4688-.0488.711-.0371.7247-.0615,1.4649-.0615,2.2228l-.0391,2.5978L741.2876,359.7278c1.9815-1.4552,6.5931-5.393,6.5931-10.5671C747.8807,345.1293,744.8581,341.8067,743.565,340.5723Z" fill="url(#Dégradé_sans_nom_397)"/>
              <path d="M613.0656,452.4582c-1.2823-1.3907,38.6831-29.617,61.0331-77.9619,6.3295-13.6806,9.274-19.1965,22.226-20.4525,13.8222-1.2852,30.2422-2.4649,38.1861-2.5782,3.2248-.045,4.7464.418,5.22,2.0489.3623,1.25-.8194,2.9748-3.2375,4.6761-21.095,14.872-52.0638,39.899-94.66,73.8523C639.1425,434.1837,613.7287,453.179,613.0656,452.4582Z" fill="url(#Dégradé_sans_nom_391)"/>
              <path d="M642.2715,206.1971a108.1981,108.1981,0,0,1-5.8382-33.7892c0-9.2672,1.9737-18.6558,5.8665-28.5711,7.17-18.2765,22.5679-39.619,45.7637-63.4353,7.4682-7.6688,38.1547-37.6768,53.7485-52.9033h0a17.2409,17.2409,0,0,0,4.8919-9.7079,93.3338,93.3338,0,0,0,.6534-11.3411l.04-2.5964L544.5554,161.8413a18.5438,18.5438,0,0,0-6.0228,7.4238,9.6235,9.6235,0,0,0,.0107,6.2338,16.1421,16.1421,0,0,0,3.7336,5.4984c1.4806,1.3966,10.2048,8.75,10.2048,8.75l180.3,140.4258C701.3593,299.2709,656.6611,249.8067,642.2715,206.1971Z" fill="url(#Dégradé_sans_nom_396)"/>
              <path d="M632.4711,203.5753a94.4841,94.4841,0,0,1-5.3694-31.182c0-9.3722,2.5655-18.4586,6.48-27.7238,16.626-39.3421,94.127-106.8042,110.005-119.2234.0576-.0785.1064-.1639.1641-.244C729.8835,34.8991,672.754,83.12,657.7579,97.65c-24.2848,23.5312-42.8553,48.7518-42.8553,74.7433,0,28.5306,19.8128,57.5963,42.3533,84.0585,14.4247,16.9365,27.8689,31.5684,41.3708,43.9617,14.2977,13.122,23.9595,21.8178,34.1642,29.75C721.0958,319.7058,651.1032,256.9879,632.4711,203.5753Z" fill="#231f20"/>
              <path d="M642.2715,206.1971a108.1981,108.1981,0,0,1-5.8382-33.7892c0-9.2672,1.9737-18.6558,5.8665-28.5711,7.17-18.2765,22.5679-39.619,45.7637-63.4353,7.4682-7.6688,38.1547-37.6768,53.7485-52.9033h0a16.0474,16.0474,0,0,0,1.7745-2.0521c-15.878,12.4192-93.379,79.8813-110.005,119.2234-3.9143,9.2652-6.48,18.3516-6.48,27.7238a94.4841,94.4841,0,0,0,5.3694,31.182c18.5324,53.13,87.8747,115.4565,100.1186,126.4084C701.1767,299.0658,656.6328,249.7169,642.2715,206.1971Z" fill="url(#Dégradé_sans_nom_395)"/>
              <path d="M653.4138,318.0064c-18.6349-53.4135-89.6579-117.1431-101.35-127.6023h-.0079c31.4679,30.832,76.9747,80.8923,91.5185,124.9693a108.2369,108.2369,0,0,1,5.8325,33.7873c0,9.2643-1.9718,18.4972-5.8618,28.3293-7.1674,18.1086-22.5463,39.2551-45.7128,62.8478-8.0552,8.2026-42.3932,41.499-53.7554,52.5051h0a15.4311,15.4311,0,0,0-1.7335,2.0058c15.9922-12.4126,93.3458-79.2019,109.9572-118.1716,3.9143-9.1856,6.478-18.1174,6.478-27.4891A94.4742,94.4742,0,0,0,653.4138,318.0064Z" fill="url(#Dégradé_sans_nom_394)"/>
              <path d="M628.6291,265.1281c-14.4277-16.9362-27.8709-31.5645-41.3737-43.9623-14.2948-13.12-25.0348-22.7333-35.1917-30.7617,11.6922,10.4592,82.7152,74.1888,101.35,127.6023a94.4742,94.4742,0,0,1,5.3647,31.1816c0,9.3717-2.5637,18.3035-6.478,27.4891-16.6114,38.97-93.965,105.759-109.9572,118.1716-.0576.0794-.1094.1664-.166.2476,13.9443-9.6847,70.9684-57.4089,85.9468-71.7971,24.2848-23.3337,42.8534-48.1192,42.8534-74.1112C670.9775,320.6569,651.1647,291.5926,628.6291,265.1281Z" fill="#231f20"/>
              <path d="M461.8486,172.3933c0,28.154-19.4276,56.8361-44.8306,82.9485a530.1065,530.1065,0,0,1-48.1592,43.38c-16.11,12.948-28.3714,21.5326-39.8716,29.3554,13.1741-10.3191,93.1929-72.2053,114.1883-124.9137,4.0949-10.2823,6.474-20.62,6.474-30.77s-2.3791-20.4877-6.474-30.7706C422.18,88.9133,342.1613,27.0257,328.9872,16.7072c11.5,7.8217,23.7612,16.4072,39.8716,29.3538A530.5146,530.5146,0,0,1,417.018,89.4422C442.421,115.5576,461.8486,144.2386,461.8486,172.3933Z" fill="#231f20"/>
              <path d="M328.9872,328.0774c13.1741-10.3191,93.1929-72.2053,114.1883-124.9137,4.0949-10.2823,6.474-20.62,6.474-30.77s-2.3791-20.4877-6.474-30.7706C422.18,88.9133,342.1613,27.0257,328.9872,16.7072c12.1633,10.3185,86.039,72.2061,105.4226,124.9155a89.4694,89.4694,0,0,1,5.9755,30.7706,89.4688,89.4688,0,0,1-5.9755,30.77C415.0262,255.8721,341.1505,317.7583,328.9872,328.0774Z" fill="url(#Dégradé_sans_nom_393)"/>
              <path d="M744.8366,339.2246c-14.9081-14.0869-82.6224-78.4963-100.8052-133.6095a106.1565,106.1565,0,0,1-5.7425-33.2072,75.6622,75.6622,0,0,1,5.7425-27.9233c8.28-21.1065,26.6687-43.632,45.3749-62.8357,7.9888-8.2041,42.4646-41.888,53.8521-53.0049a18.7855,18.7855,0,0,0,5.0471-9.3061,93.4683,93.4683,0,0,0,.9054-12.86l.0977-6.4628-205.85,160.3314c-2.2677,1.6656-5.6478,4.8006-6.8764,8.919-1.2374-4.1248-4.6439-7.2666-6.8374-8.9337L323.9009,0V344.7834L529.7449,184.454c2.1994-1.671,5.6166-4.8206,6.8452-8.958a16.8091,16.8091,0,0,0,4.4163,6.8481c14.9081,14.0853,82.62,78.4951,100.8071,133.6094a106.22,106.22,0,0,1,5.7406,33.2072c0,9.44-2.0772,18.4329-5.7406,27.6885-8.272,20.9064-26.6394,43.2212-45.3241,62.2541-7.9918,8.1346-42.4754,41.5765-53.8579,52.6035a18.744,18.744,0,0,0-5.0531,9.231,119.4456,119.4456,0,0,0-.8936,14.1533l-.0976,6.4633L742.3842,361.22c2.8147-2.0647,7.3492-6.393,7.3492-12.0594C749.7334,344.1467,745.9334,340.2735,744.8366,339.2246ZM528.593,183.03,325.7648,341.01V3.9187l202.81,157.968c2.4654,1.8751,6.5809,5.725,6.5809,10.5778S531.04,181.1657,528.593,183.03Zm9.95-7.5307a9.6235,9.6235,0,0,1-.0107-6.2338,18.5438,18.5438,0,0,1,6.0228-7.4238L747.3973,3.8528l-.04,2.5964a93.3338,93.3338,0,0,1-.6534,11.3411,17.2409,17.2409,0,0,1-4.8919,9.7079c-15.5957,15.2285-46.2812,45.235-53.7485,52.9033C664.8677,104.2178,649.47,125.56,642.3,143.8368c-3.8928,9.9153-5.8665,19.3039-5.8665,28.5711a108.1981,108.1981,0,0,0,5.8382,33.7892c14.39,43.61,59.0878,93.0738,90.5106,123.9761l-180.3-140.4258s-8.7242-7.3535-10.2048-8.75A16.1421,16.1421,0,0,1,538.5433,175.4989ZM741.2876,359.7278,538.4984,517.7143l.0391-2.5978c0-2.7678.2695-10.5018.6386-12.6474a17.6341,17.6341,0,0,1,4.9007-9.6262c11.367-11.01,45.7-44.3043,53.7554-52.5051,23.1665-23.5927,38.5454-44.7392,45.7128-62.8478,3.89-9.8321,5.8618-19.065,5.8618-28.3293a108.2369,108.2369,0,0,0-5.8325-33.7873c-14.5516-44.0975-60.0926-94.1852-91.5633-125.0127L732.8065,331.1733s8.9088,7.6528,10.7585,9.399c1.2931,1.2344,4.3157,4.557,4.3157,8.5884C747.8807,354.3348,743.2691,358.2726,741.2876,359.7278Z" fill="#231f20"/>
              <path d="M669.2625,275.6854c.4708-.43-20.4554-20.9754-23.0405-23.4043-23.1636-21.7324-41.7985-54.9884-41.9861-55.32-6.98-13.3568-9.271-19.1951-22.2182-20.4525-13.8328-1.2843-22.7387-1.6793-30.6865-1.795-3.2209-.0435-4.74.4189-5.2141,2.0508-.3614,1.2482.8144,2.9734,3.2355,4.6752,21.097,14.8706,52.0609,39.8966,94.66,73.8489C646.7005,257.4322,668.5378,276.3456,669.2625,275.6854Z" fill="url(#Dégradé_sans_nom_391-2)"/>
            </g>
            <path d="M325.7833,330.5892l3.2214-2.51c.0259-.0224.0576-.0488.084-.0713,11.4709-7.8042,23.7071-16.3761,39.77-29.286a530.1065,530.1065,0,0,0,48.1592-43.38c25.403-26.1124,44.8306-54.7945,44.8306-82.9485S442.421,115.5576,417.018,89.4422A530.5146,530.5146,0,0,0,368.8588,46.061c-16.11-12.9466-28.3714-21.5321-39.8716-29.3538l-3.2053-2.4953-.0171-10.2932,202.81,157.968c2.4654,1.8751,6.5809,5.725,6.5809,10.5778s-4.1155,8.7012-6.5624,10.5651L325.7648,341.01Z" fill="url(#Dégradé_sans_nom_18)"/>
            <path d="M401.5669,275.6874c-.2154-.1622,5.2079-5.0726,17.342-15.9683,2.8248-2.5329,5.447-5.0091,8.0322-7.438,23.1606-21.7324,41.797-54.9884,41.9845-55.32,6.98-13.3568,9.2726-19.1951,22.2212-20.4525,13.827-1.2843,22.7372-1.6793,30.6845-1.795,3.2228-.0435,4.7395.4189,5.2157,2.0508.3618,1.2482-.8194,2.9734-3.2321,4.6752-21.1,14.8706-51.6132,40.5216-94.6755,73.8489-2.7174,2.1041-5.43,4.3035-8.2817,6.41C408.5483,270.8062,402.358,276.2713,401.5669,275.6874Z" fill="url(#Dégradé_sans_nom_391-3)"/>
          </g>
          <path d="M434.41,203.1715c-19.384,52.7064-93.2573,114.5927-105.42,124.9078l-3.2214,2.51-.0014-316.3773,3.2228,2.509c12.1629,10.3175,86.0362,72.2027,105.42,124.9116a89.5011,89.5011,0,0,1,5.974,30.7691A89.5059,89.5059,0,0,1,434.41,203.1715Z" fill="url(#Dégradé_sans_nom_2)"/>
        </g>
      </g>
    </g>
  </g>
</svg>
