<svg xmlns="http://www.w3.org/2000/svg" xmlns:xlink="http://www.w3.org/1999/xlink" width="150.2243mm" height="183.9928mm" viewBox="0 0 425.8326 521.5544">
  <defs>
    <linearGradient id="Dégradé_sans_nom_397" data-name="Dégradé sans nom 397" x1="319.2887" y1="190.3607" x2="319.2887" y2="517.7143" gradientUnits="userSpaceOnUse">
      <stop offset="0.0425" stop-color="#7d7e81"/>
      <stop offset="0.2272" stop-color="#b6b7b9"/>
      <stop offset="0.4141" stop-color="#ebebeb"/>
      <stop offset="0.5056" stop-color="#fff"/>
      <stop offset="0.5829" stop-color="#fafafa"/>
      <stop offset="0.675" stop-color="#ebecec"/>
      <stop offset="0.7747" stop-color="#d3d4d5"/>
      <stop offset="0.879" stop-color="#b2b4b6"/>
      <stop offset="0.96" stop-color="#939598"/>
    </linearGradient>
    <linearGradient id="Dégradé_sans_nom_391" data-name="Dégradé sans nom 391" x1="-356.3463" y1="403.6384" x2="-348.4306" y2="494.1153" gradientTransform="translate(704.748 -47.5059)" gradientUnits="userSpaceOnUse">
      <stop offset="0" stop-color="#9d9fa2"/>
      <stop offset="0.2126" stop-color="#231f20"/>
      <stop offset="0.8061" stop-color="#231f20"/>
    </linearGradient>
    <linearGradient id="Dégradé_sans_nom_396" data-name="Dégradé sans nom 396" x1="318.8071" y1="3.8528" x2="318.8071" y2="330.1732" gradientUnits="userSpaceOnUse">
      <stop offset="0.04" stop-color="#dadbdc"/>
      <stop offset="0.1147" stop-color="#d5d6d7"/>
      <stop offset="0.2037" stop-color="#c7c8ca"/>
      <stop offset="0.25" stop-color="#bcbec0"/>
      <stop offset="0.4156" stop-color="#ebebec"/>
      <stop offset="0.5056" stop-color="#fff"/>
      <stop offset="0.5524" stop-color="#f9f9f9"/>
      <stop offset="0.6137" stop-color="#e9e9e9"/>
      <stop offset="0.6831" stop-color="#cfcece"/>
      <stop offset="0.7583" stop-color="#a9a8a8"/>
      <stop offset="0.8384" stop-color="#7a7778"/>
      <stop offset="0.9213" stop-color="#403d3e"/>
      <stop offset="0.96" stop-color="#231f20"/>
    </linearGradient>
    <linearGradient id="Dégradé_sans_nom_395" data-name="Dégradé sans nom 395" x1="361.4432" y1="329.9837" x2="361.4432" y2="25.4461" gradientUnits="userSpaceOnUse">
      <stop offset="0.04" stop-color="#231f20"/>
      <stop offset="0.0471" stop-color="#302d2e"/>
      <stop offset="0.0725" stop-color="#5b5859"/>
      <stop offset="0.1006" stop-color="#838081"/>
      <stop offset="0.1307" stop-color="#a4a3a3"/>
      <stop offset="0.1635" stop-color="#c1c0c0"/>
      <stop offset="0.2" stop-color="#d8d7d7"/>
      <stop offset="0.2414" stop-color="#e9e9e9"/>
      <stop offset="0.2911" stop-color="#f6f6f6"/>
      <stop offset="0.3571" stop-color="#fdfdfd"/>
      <stop offset="0.5056" stop-color="#fff"/>
      <stop offset="0.6515" stop-color="#fdfdfd"/>
      <stop offset="0.7321" stop-color="#f5f5f5"/>
      <stop offset="0.7967" stop-color="#e7e7e8"/>
      <stop offset="0.8529" stop-color="#d3d4d5"/>
      <stop offset="0.9035" stop-color="#babbbd"/>
      <stop offset="0.9496" stop-color="#9b9da0"/>
      <stop offset="0.9605" stop-color="#939598"/>
    </linearGradient>
    <linearGradient id="Dégradé_sans_nom_394" data-name="Dégradé sans nom 394" x1="276.66" y1="494.8487" x2="276.66" y2="190.4041" gradientUnits="userSpaceOnUse">
      <stop offset="0.0405" stop-color="#6d6e71"/>
      <stop offset="0.0572" stop-color="#818285"/>
      <stop offset="0.0899" stop-color="#a3a3a5"/>
      <stop offset="0.1263" stop-color="#c0c0c1"/>
      <stop offset="0.1666" stop-color="#d7d7d8"/>
      <stop offset="0.2126" stop-color="#e9e9ea"/>
      <stop offset="0.2677" stop-color="#f6f6f6"/>
      <stop offset="0.3409" stop-color="#fdfdfd"/>
      <stop offset="0.5056" stop-color="#fff"/>
      <stop offset="0.5835" stop-color="#fcfcfc"/>
      <stop offset="0.6462" stop-color="#f2f2f2"/>
      <stop offset="0.7034" stop-color="#e1e1e1"/>
      <stop offset="0.7576" stop-color="#cac9c9"/>
      <stop offset="0.8095" stop-color="#acaaab"/>
      <stop offset="0.8597" stop-color="#878485"/>
      <stop offset="0.9087" stop-color="#5b5858"/>
      <stop offset="0.9554" stop-color="#292526"/>
      <stop offset="0.9605" stop-color="#231f20"/>
    </linearGradient>
    <linearGradient id="Dégradé_sans_nom_393" data-name="Dégradé sans nom 393" x1="65.4175" y1="328.0774" x2="65.4175" y2="16.7072" gradientUnits="userSpaceOnUse">
      <stop offset="0.04" stop-color="#231f20"/>
      <stop offset="0.0671" stop-color="#484546"/>
      <stop offset="0.103" stop-color="#737071"/>
      <stop offset="0.1417" stop-color="#999797"/>
      <stop offset="0.1828" stop-color="#b8b7b7"/>
      <stop offset="0.2268" stop-color="#d2d1d2"/>
      <stop offset="0.2751" stop-color="#e6e6e6"/>
      <stop offset="0.3296" stop-color="#f4f4f4"/>
      <stop offset="0.3957" stop-color="#fdfcfc"/>
      <stop offset="0.5056" stop-color="#fff"/>
      <stop offset="0.6185" stop-color="#fdfdfd"/>
      <stop offset="0.6808" stop-color="#f5f5f5"/>
      <stop offset="0.7308" stop-color="#e7e7e7"/>
      <stop offset="0.7742" stop-color="#d3d3d3"/>
      <stop offset="0.8135" stop-color="#bababa"/>
      <stop offset="0.8497" stop-color="#9b9b9b"/>
      <stop offset="0.8835" stop-color="#767676"/>
      <stop offset="0.9155" stop-color="#4a4a4a"/>
      <stop offset="0.945" stop-color="#1b1b1b"/>
      <stop offset="0.96"/>
    </linearGradient>
    <linearGradient id="Dégradé_sans_nom_391-2" x1="976.4016" y1="179.1052" x2="984.3526" y2="269.9849" gradientTransform="matrix(-1, 0, 0, 1, 1264.3009, 0)" xlink:href="#Dégradé_sans_nom_391"/>
    <linearGradient id="Dégradé_sans_nom_18" data-name="Dégradé sans nom 18" x1="106.5592" y1="3.9187" x2="106.5592" y2="341.0098" gradientUnits="userSpaceOnUse">
      <stop offset="0.0405" stop-color="#6d6e71"/>
      <stop offset="0.1186" stop-color="#7f8083"/>
      <stop offset="0.2764" stop-color="#afb0b2"/>
      <stop offset="0.4975" stop-color="#fcfcfc"/>
      <stop offset="0.5056" stop-color="#fff"/>
      <stop offset="0.5771" stop-color="#ececec"/>
      <stop offset="0.722" stop-color="#bbbcbc"/>
      <stop offset="0.9256" stop-color="#6d6e70"/>
      <stop offset="0.96" stop-color="#5f6062"/>
    </linearGradient>
    <linearGradient id="Dégradé_sans_nom_391-3" x1="136.3051" y1="179.2065" x2="144.2415" y2="269.9207" gradientTransform="matrix(1, 0, 0, 1, 0, 0)" xlink:href="#Dégradé_sans_nom_391"/>
    <linearGradient id="Dégradé_sans_nom_2" data-name="Dégradé sans nom 2" x1="59.1744" y1="14.2119" x2="59.1744" y2="330.5892" gradientUnits="userSpaceOnUse">
      <stop offset="0.0182" stop-color="#f6f6f6"/>
      <stop offset="0.47" stop-color="#e4e5e6"/>
      <stop offset="0.9617" stop-color="#666"/>
    </linearGradient>
  </defs>
  <title>ds-only</title>
  <g id="Calque_2" data-name="Calque 2">
    <g id="Monogram_name" data-name="Monogram + name">
      <g>
        <g>
          <g>
            <path d="M419.6642,340.5723c-1.85-1.7462-10.7585-9.399-10.7585-9.399L228.11,190.3607c31.4708,30.8275,77.0117,80.9152,91.5634,125.0127a108.24,108.24,0,0,1,5.8324,33.7873c0,9.2643-1.9718,18.4972-5.8617,28.3293-7.1675,18.1086-22.5464,39.2551-45.7128,62.8478-8.0552,8.2026-42.3933,41.499-53.7554,52.5051h0a17.5819,17.5819,0,0,0-4.844,9.3558c-.042.24-.086.4746-.126.7222-.0381.2306-.0732.4688-.1074.707-.0576.3894-.1074,5.9492-.1563,6.3711-.0294.2539-.06.51-.085.7715-.045.459-.079.9337-.11,1.4122-.0166.2363-.0371.4688-.0488.711-.0371.7247-.0615,1.4649-.0615,2.2228l-.0391,2.5978L417.3867,359.7278c1.9815-1.4552,6.5931-5.393,6.5931-10.5671C423.98,345.1293,420.9573,341.8067,419.6642,340.5723Z" fill="url(#Dégradé_sans_nom_397)"/>
            <path d="M289.1647,452.4582c-1.2823-1.3907,38.6832-29.617,61.0332-77.9619,6.3295-13.6806,9.274-19.1965,22.226-20.4525,13.8222-1.2852,30.2421-2.4649,38.186-2.5782,3.2248-.045,4.7464.418,5.22,2.0489.3623,1.25-.8193,2.9748-3.2375,4.6761-21.095,14.872-52.0638,39.899-94.66,73.8523C315.2416,434.1837,289.8279,453.179,289.1647,452.4582Z" fill="url(#Dégradé_sans_nom_391)"/>
            <path d="M318.3707,206.1971a108.1954,108.1954,0,0,1-5.8383-33.7892c0-9.2672,1.9737-18.6558,5.8666-28.5711,7.17-18.2765,22.5678-39.619,45.7637-63.4353,7.4681-7.6688,38.1547-37.6768,53.7484-52.9033h0a17.2417,17.2417,0,0,0,4.892-9.7079,93.35,93.35,0,0,0,.6533-11.3411l.04-2.5964L220.6545,161.8413a18.5438,18.5438,0,0,0-6.0228,7.4238,9.6241,9.6241,0,0,0,.0107,6.2338,16.1406,16.1406,0,0,0,3.7337,5.4984c1.4806,1.3966,10.2047,8.75,10.2047,8.75L408.8813,330.1732C377.4584,299.2709,332.76,249.8067,318.3707,206.1971Z" fill="url(#Dégradé_sans_nom_396)"/>
            <path d="M308.57,203.5753a94.4816,94.4816,0,0,1-5.3695-31.182c0-9.3722,2.5656-18.4586,6.48-27.7238,16.6261-39.3421,94.1271-106.8042,110.0051-119.2234.0576-.0785.1064-.1639.1641-.244C405.9826,34.8991,348.8531,83.12,333.857,97.65c-24.2848,23.5312-42.8553,48.7518-42.8553,74.7433,0,28.5306,19.8128,57.5963,42.3533,84.0585,14.4247,16.9365,27.869,31.5684,41.3708,43.9617,14.2977,13.122,23.9595,21.8178,34.1643,29.75C397.1949,319.7058,327.2023,256.9879,308.57,203.5753Z" fill="#231f20"/>
            <path d="M318.3707,206.1971a108.1954,108.1954,0,0,1-5.8383-33.7892c0-9.2672,1.9737-18.6558,5.8666-28.5711,7.17-18.2765,22.5678-39.619,45.7637-63.4353,7.4681-7.6688,38.1547-37.6768,53.7484-52.9033h0a16.0561,16.0561,0,0,0,1.7746-2.0521c-15.878,12.4192-93.379,79.8813-110.0051,119.2234-3.9142,9.2652-6.48,18.3516-6.48,27.7238a94.4816,94.4816,0,0,0,5.3695,31.182c18.5323,53.13,87.8746,115.4565,100.1186,126.4084C377.2758,299.0658,332.732,249.7169,318.3707,206.1971Z" fill="url(#Dégradé_sans_nom_395)"/>
            <path d="M329.513,318.0064c-18.635-53.4135-89.658-117.1431-101.35-127.6023h-.0079c31.4679,30.832,76.9746,80.8923,91.5185,124.9693a108.24,108.24,0,0,1,5.8324,33.7873c0,9.2643-1.9718,18.4972-5.8617,28.3293-7.1675,18.1086-22.5464,39.2551-45.7128,62.8478-8.0552,8.2026-42.3933,41.499-53.7554,52.5051h0a15.4158,15.4158,0,0,0-1.7335,2.0058c15.9922-12.4126,93.3458-79.2019,109.9571-118.1716,3.9144-9.1856,6.478-18.1174,6.478-27.4891A94.4767,94.4767,0,0,0,329.513,318.0064Z" fill="url(#Dégradé_sans_nom_394)"/>
            <path d="M304.7282,265.1281c-14.4277-16.9362-27.8708-31.5645-41.3737-43.9623-14.2948-13.12-25.0348-22.7333-35.1916-30.7617,11.6921,10.4592,82.7151,74.1888,101.35,127.6023a94.4767,94.4767,0,0,1,5.3646,31.1816c0,9.3717-2.5636,18.3035-6.478,27.4891-16.6113,38.97-93.9649,105.759-109.9571,118.1716-.0576.0794-.1094.1664-.166.2476,13.9442-9.6847,70.9683-57.4089,85.9468-71.7971,24.2847-23.3337,42.8533-48.1192,42.8533-74.1112C347.0766,320.6569,327.2638,291.5926,304.7282,265.1281Z" fill="#231f20"/>
            <path d="M137.9477,172.3933c0,28.154-19.4275,56.8361-44.83,82.9485a530.12,530.12,0,0,1-48.1593,43.38c-16.11,12.948-28.3714,21.5326-39.8716,29.3554,13.1742-10.3191,93.1929-72.2053,114.1883-124.9137,4.095-10.2823,6.474-20.62,6.474-30.77s-2.379-20.4877-6.474-30.7706C98.2792,88.9133,18.2605,27.0257,5.0863,16.7072c11.5,7.8217,23.7612,16.4072,39.8716,29.3538A530.5285,530.5285,0,0,1,93.1172,89.4422C118.52,115.5576,137.9477,144.2386,137.9477,172.3933Z" fill="#231f20"/>
            <path d="M5.0863,328.0774c13.1742-10.3191,93.1929-72.2053,114.1883-124.9137,4.095-10.2823,6.474-20.62,6.474-30.77s-2.379-20.4877-6.474-30.7706C98.2792,88.9133,18.2605,27.0257,5.0863,16.7072,17.25,27.0257,91.1253,88.9133,110.509,141.6227a89.4716,89.4716,0,0,1,5.9754,30.7706,89.4709,89.4709,0,0,1-5.9754,30.77C91.1253,255.8721,17.25,317.7583,5.0863,328.0774Z" fill="url(#Dégradé_sans_nom_393)"/>
            <path d="M420.9357,339.2246c-14.9081-14.0869-82.6224-78.4963-100.8051-133.6095a106.1567,106.1567,0,0,1-5.7426-33.2072,75.6623,75.6623,0,0,1,5.7426-27.9233c8.28-21.1065,26.6687-43.632,45.3748-62.8357,7.9889-8.2041,42.4646-41.888,53.8521-53.0049a18.7865,18.7865,0,0,0,5.0472-9.3061,93.4827,93.4827,0,0,0,.9053-12.86l.0977-6.4628-205.85,160.3314c-2.2677,1.6656-5.6478,4.8006-6.8764,8.919-1.2374-4.1248-4.6439-7.2666-6.8373-8.9337L0,0V344.7834L205.8441,184.454c2.1993-1.671,5.6165-4.8206,6.8451-8.958a16.81,16.81,0,0,0,4.4163,6.8481c14.9081,14.0853,82.62,78.4951,100.8071,133.6094a106.22,106.22,0,0,1,5.7406,33.2072c0,9.44-2.0772,18.4329-5.7406,27.6885-8.272,20.9064-26.6393,43.2212-45.3241,62.2541-7.9917,8.1346-42.4754,41.5765-53.8579,52.6035a18.743,18.743,0,0,0-5.053,9.231,119.4235,119.4235,0,0,0-.8937,14.1533l-.0976,6.4633L418.4834,361.22c2.8147-2.0647,7.3492-6.393,7.3492-12.0594C425.8326,344.1467,422.0325,340.2735,420.9357,339.2246ZM204.6921,183.03,1.8639,341.01V3.9187l202.81,157.968c2.4655,1.8751,6.5809,5.725,6.5809,10.5778S207.1391,181.1657,204.6921,183.03Zm9.95-7.5307a9.6241,9.6241,0,0,1-.0107-6.2338,18.5438,18.5438,0,0,1,6.0228-7.4238L423.4964,3.8528l-.04,2.5964a93.35,93.35,0,0,1-.6533,11.3411,17.2417,17.2417,0,0,1-4.892,9.7079c-15.5956,15.2285-46.2812,45.235-53.7484,52.9033-23.1959,23.8163-38.5934,45.1588-45.7637,63.4353-3.8929,9.9153-5.8666,19.3039-5.8666,28.5711a108.1954,108.1954,0,0,0,5.8383,33.7892c14.39,43.61,59.0877,93.0738,90.5106,123.9761l-180.3-140.4258s-8.7241-7.3535-10.2047-8.75A16.1406,16.1406,0,0,1,214.6424,175.4989ZM417.3867,359.7278,214.5975,517.7143l.0391-2.5978c0-2.7678.27-10.5018.6387-12.6474a17.6328,17.6328,0,0,1,4.9007-9.6262c11.3669-11.01,45.7-44.3043,53.7554-52.5051,23.1664-23.5927,38.5453-44.7392,45.7128-62.8478,3.89-9.8321,5.8617-19.065,5.8617-28.3293a108.24,108.24,0,0,0-5.8324-33.7873c-14.5517-44.0975-60.0926-94.1852-91.5634-125.0127L408.9057,331.1733s8.9087,7.6528,10.7585,9.399c1.2931,1.2344,4.3156,4.557,4.3156,8.5884C423.98,354.3348,419.3682,358.2726,417.3867,359.7278Z" fill="#231f20"/>
            <path d="M345.3617,275.6854c.4707-.43-20.4554-20.9754-23.0406-23.4043-23.1635-21.7324-41.7985-54.9884-41.986-55.32-6.98-13.3568-9.2711-19.1951-22.2182-20.4525-13.8329-1.2843-22.7388-1.6793-30.6866-1.795-3.2209-.0435-4.74.4189-5.2141,2.0508-.3614,1.2482.8145,2.9734,3.2355,4.6752,21.097,14.8706,52.0609,39.8966,94.66,73.8489C322.8,257.4322,344.6369,276.3456,345.3617,275.6854Z" fill="url(#Dégradé_sans_nom_391-2)"/>
          </g>
          <path d="M1.8824,330.5892l3.2214-2.51c.0259-.0224.0576-.0488.084-.0713,11.471-7.8042,23.7071-16.3761,39.77-29.286a530.12,530.12,0,0,0,48.1593-43.38c25.403-26.1124,44.8305-54.7945,44.8305-82.9485s-19.4275-56.8357-44.83-82.9511A530.5285,530.5285,0,0,0,44.9579,46.061C28.8475,33.1144,16.5865,24.5289,5.0863,16.7072L1.881,14.2119,1.8639,3.9187l202.81,157.968c2.4655,1.8751,6.5809,5.725,6.5809,10.5778s-4.1154,8.7012-6.5624,10.5651L1.8639,341.01Z" fill="url(#Dégradé_sans_nom_18)"/>
          <path d="M77.666,275.6874c-.2153-.1622,5.2079-5.0726,17.342-15.9683,2.8249-2.5329,5.447-5.0091,8.0322-7.438,23.1607-21.7324,41.797-54.9884,41.9845-55.32,6.98-13.3568,9.2726-19.1951,22.2212-20.4525,13.827-1.2843,22.7373-1.6793,30.6846-1.795,3.2228-.0435,4.7395.4189,5.2156,2.0508.3618,1.2482-.8193,2.9734-3.2321,4.6752-21.1,14.8706-51.6132,40.5216-94.6755,73.8489-2.7173,2.1041-5.43,4.3035-8.2817,6.41C84.6474,270.8062,78.4571,276.2713,77.666,275.6874Z" fill="url(#Dégradé_sans_nom_391-3)"/>
        </g>
        <path d="M110.509,203.1715C91.1249,255.8779,17.2516,317.7642,5.0887,328.0793l-3.2214,2.51L1.8659,14.2119l3.2228,2.509c12.1629,10.3175,86.0362,72.2027,105.42,124.9116a89.5034,89.5034,0,0,1,5.974,30.7691A89.5082,89.5082,0,0,1,110.509,203.1715Z" fill="url(#Dégradé_sans_nom_2)"/>
      </g>
    </g>
  </g>
</svg>
