<?xml version="1.0" encoding="utf-8"?>
<!-- Generator: Adobe Illustrator 24.0.0, SVG Export Plug-In . SVG Version: 6.00 Build 0)  -->
<svg version="1.1" id="Calque_1" xmlns="http://www.w3.org/2000/svg" xmlns:xlink="http://www.w3.org/1999/xlink" x="0px" y="0px"
	 viewBox="0 0 163.5 111" style="enable-background:new 0 0 163.5 111;" xml:space="preserve">
<style type="text/css">
	.st0{fill:#FFFFFF;}
	.st1{opacity:0.2;fill:#FFFFFF;enable-background:new    ;}
</style>
<title>logo3</title>
<g id="Calque_2_1_">
	<g id="OBJECTS">
		<g>
			<g>
				<g>
					<path class="st0" d="M6.5,82.2h1l6,13.8h-2l-1.3-3H3.3l-1.4,3H0L6.5,82.2z M9.5,91.4l-1.3-2.9c-0.2-0.4-0.3-0.7-0.5-1.1
						l-0.4-1.1c-0.2-0.5-0.3-1-0.4-1.5H6.8c-0.1,0.4-0.2,0.8-0.4,1.1L6,87.2c-0.1,0.4-0.3,0.7-0.5,1.1L4,91.4H9.5z"/>
					<path class="st0" d="M15.2,82.2H17v7.2c0,2.5,0.8,4.1,2.5,4.9c0.6,0.3,1.3,0.4,2,0.4s1.4-0.1,2-0.3c0.5-0.2,1-0.6,1.4-1
						c0.8-1,1.1-2.3,1-3.6v-7.5h1.8v7.2c0,3.3-1.2,5.4-3.6,6.4c-0.9,0.3-1.8,0.5-2.8,0.5c-0.9,0-1.8-0.1-2.7-0.5
						c-0.7-0.3-1.4-0.7-1.9-1.3c-1.1-1.3-1.7-3.1-1.6-4.8v-7.6H15.2z"/>
					<path class="st0" d="M47.9,85.1c-1.2-1-2.6-1.5-4.2-1.4c-1.5,0-2.9,0.5-3.9,1.5c-1.1,1-1.7,2.4-1.6,3.8c0,1.5,0.6,3,1.7,4
						c1.1,1.1,2.5,1.7,4.1,1.6c1.2,0,2.4-0.3,3.4-0.9c0.3-0.2,0.6-0.3,0.9-0.6l0.7,1.3c-1.1,0.9-2.3,1.4-3.7,1.6
						c-0.5,0.1-1,0.1-1.5,0.1c-1,0-2-0.2-2.9-0.5s-1.7-0.8-2.4-1.4s-1.2-1.4-1.6-2.2c-0.4-0.8-0.6-1.7-0.6-2.6
						c0-0.8,0.1-1.5,0.3-2.3c0.2-0.6,0.4-1.2,0.8-1.8c0.3-0.5,0.7-1,1.2-1.4s1-0.8,1.5-1.1c1.2-0.6,2.5-0.9,3.9-0.9
						c1.8,0,3.5,0.5,4.9,1.6L47.9,85.1z"/>
					<path class="st0" d="M53.1,94.3c-0.7-0.6-1.2-1.4-1.6-2.2c-0.4-0.8-0.6-1.7-0.6-2.6c0-0.8,0.1-1.5,0.3-2.3
						c0.2-0.6,0.4-1.2,0.8-1.8c0.3-0.5,0.7-1,1.2-1.4s1-0.8,1.5-1.1c1.2-0.6,2.5-0.9,3.9-0.9c1.3,0,2.6,0.3,3.8,0.9
						c1.1,0.6,2,1.4,2.7,2.4c0.7,1.1,1,2.3,1,3.6c0.1,2-0.8,3.9-2.2,5.2c-1,0.9-2.1,1.5-3.4,1.8c-0.7,0.2-1.5,0.3-2.3,0.2
						c-0.9,0-1.8-0.2-2.7-0.5C54.6,95.4,53.8,94.9,53.1,94.3z M54.4,85.2c-1.1,1-1.6,2.4-1.6,3.8c0,0.8,0.1,1.5,0.4,2.2
						c0.9,2.1,3,3.4,5.3,3.4c1.5,0,2.9-0.5,3.9-1.5c1.1-1,1.7-2.4,1.6-3.8c0-2-1.1-3.9-2.8-4.9c-0.8-0.5-1.7-0.8-2.7-0.8
						c-0.8,0-1.6,0.1-2.4,0.4C55.5,84.3,54.9,84.7,54.4,85.2z"/>
					<path class="st0" d="M69.1,82.2h1.8v12.2h7.5V96h-9.3V82.2z"/>
					<path class="st0" d="M82.7,94.3c-0.7-0.6-1.2-1.4-1.6-2.2c-0.4-0.8-0.6-1.7-0.6-2.6c0-0.8,0.1-1.5,0.3-2.3
						c0.2-0.6,0.4-1.2,0.8-1.8c0.3-0.5,0.7-1,1.2-1.4s1-0.8,1.5-1.1c1.2-0.6,2.5-0.9,3.9-0.9c1.3,0,2.6,0.3,3.8,0.9
						c1.1,0.6,2,1.4,2.7,2.4c0.7,1.1,1,2.3,1,3.6c0.1,2-0.8,3.9-2.2,5.2c-1,0.9-2.1,1.5-3.4,1.8c-0.7,0.2-1.5,0.3-2.3,0.2
						c-0.9,0-1.8-0.2-2.7-0.5C84.2,95.4,83.4,94.9,82.7,94.3z M84,85.2c-1.1,1-1.6,2.4-1.6,3.8c0,0.8,0.1,1.5,0.4,2.2
						c0.9,2.1,3,3.4,5.3,3.4c1.5,0,2.9-0.5,3.9-1.5c1.1-1,1.7-2.4,1.6-3.8c0-2-1.1-3.9-2.8-4.9c-0.8-0.5-1.7-0.8-2.7-0.8
						c-0.8,0-1.6,0.1-2.4,0.4C85.1,84.3,84.5,84.7,84,85.2z"/>
					<path class="st0" d="M99.7,82.2h0.5l6.1,6.7l6.1-6.7h0.6l1.2,13.8h-1.8l-0.9-10.4l-5.2,5.7h-0.2l-5-5.6L100.4,96h-1.7
						L99.7,82.2z"/>
					<path class="st0" d="M117.7,82.2h5.1c1.3-0.1,2.6,0.1,3.8,0.6c1.1,0.5,1.7,1.6,1.7,2.7c0,0.6-0.2,1.2-0.6,1.6
						c-0.3,0.4-0.7,0.8-1.2,0.9c0.9,0.1,1.7,0.6,2.2,1.2c0.6,0.7,0.9,1.5,0.9,2.4c0,2-1.1,3.3-3.3,3.9c-1,0.3-2.1,0.4-3.1,0.4h-5.4
						L117.7,82.2z M123,87.6c1.1,0.1,2.2-0.2,3-1c0.2-0.3,0.3-0.6,0.3-1s-0.1-0.7-0.4-1s-0.6-0.4-0.9-0.5c-0.8-0.2-1.7-0.3-2.5-0.3
						h-3v3.7L123,87.6z M127.6,91.9c0-1.8-1.4-2.6-4.3-2.6h-3.8v5.2h3.8c2,0,3.3-0.4,3.9-1.3C127.5,92.8,127.6,92.3,127.6,91.9z"/>
					<path class="st0" d="M132.6,82.2h1.8V96h-1.8V82.2z"/>
					<path class="st0" d="M138,82.2h10.3v1.6h-8.5v3.7h7.6v1.6h-7.6v5.2h8.7V96H138V82.2z"/>
					<path class="st0" d="M163.5,86.5c0.1,1.9-1,3.6-2.8,4.2l2.6,5.3h-2.1l-2.4-4.8c-0.7,0.1-1.3,0.1-2,0.1h-3.6V96h-1.8V82.2h5.7
						c1.6-0.1,3.1,0.2,4.6,0.8C162.8,83.7,163.6,85.1,163.5,86.5z M157,89.7c1.1,0.1,2.2-0.1,3.2-0.6c0.9-0.5,1.4-1.5,1.3-2.5
						c0-1.5-1-2.4-3-2.6c-0.6-0.1-1.2-0.1-1.8-0.1h-3.6v5.9L157,89.7z"/>
				</g>
				<g>
					<path class="st0" d="M68,106.6h2.9v3.9c-0.4,0.1-0.9,0.3-1.4,0.3c-0.5,0.1-0.9,0.1-1.4,0.1c-1,0.1-2-0.3-2.8-1.1
						c-0.7-0.8-1-1.9-1-3c-0.1-1.1,0.3-2.2,1.1-3c0.8-0.7,1.9-1.1,3-1.1c0.8,0,1.6,0.2,2.3,0.5l-0.5,1.1c-0.6-0.3-1.3-0.4-1.9-0.4
						c-0.7,0-1.5,0.3-2,0.8c-0.5,0.6-0.8,1.4-0.7,2.2c-0.1,0.8,0.2,1.6,0.7,2.2c0.5,0.5,1.2,0.8,1.9,0.7c0.4,0,0.9-0.1,1.3-0.2v-2
						H68V106.6z"/>
					<path class="st0" d="M79,102.4c-0.4-0.3-0.9-0.6-1.2-1c-0.4,0.4-0.8,0.7-1.2,1h-0.8v-0.1c0.5-0.5,1-1,1.4-1.6h1.4
						c0.4,0.6,0.9,1.1,1.4,1.6v0.1H79z M77.2,110.9V103h1.3v7.9H77.2z"/>
					<path class="st0" d="M87.7,110.9h-1.3v-6.8h-2.3V103H90v1.1h-2.3V110.9z"/>
					<path class="st0" d="M100,110.9h-4.4V103h4.4v1.1h-3.2v2.1h3v1.1h-3v2.5h3.2V110.9z"/>
				</g>
			</g>
			<g>
				<g>
					<rect x="59.2" y="0.9" class="st0" width="13.1" height="3.4"/>
					<path class="st0" d="M82.9,0L72.2,10.9V5.3h-13V22l-7.8,8.5L82.3,61L113,30.5L82.9,0z M81.7,39c0,0.3-0.3,0.6-0.6,0.6h-7
						c-0.3,0-0.6-0.3-0.6-0.6v-7c0-0.3,0.3-0.6,0.6-0.6h7c0.3,0,0.6,0.3,0.6,0.6V39z M81.7,29c0,0.3-0.3,0.6-0.6,0.6l0,0h-7
						c-0.3,0-0.6-0.3-0.6-0.6l0,0v-7c0-0.3,0.3-0.6,0.6-0.6h7c0.3,0,0.6,0.3,0.6,0.6V29z M91.7,39c0,0.3-0.3,0.6-0.6,0.6h-7
						c-0.3,0-0.6-0.3-0.6-0.6v-7c0-0.3,0.3-0.6,0.6-0.6h7c0.3,0,0.6,0.3,0.6,0.6V39z M91.1,29.6h-7c-0.3,0-0.6-0.3-0.6-0.6l0,0v-7
						c0-0.3,0.3-0.6,0.6-0.6h7c0.3,0,0.6,0.3,0.6,0.6v7C91.7,29.3,91.5,29.6,91.1,29.6L91.1,29.6L91.1,29.6z"/>
					<polygon class="st0" points="118.1,35.5 87.6,65.9 148.5,65.9 					"/>
					<polygon class="st0" points="47.2,35.5 16.7,65.9 77.7,65.9 					"/>
				</g>
				<polygon class="st1" points="82.6,56.7 54.2,28.4 52.1,30.5 82.6,61 113.1,30.5 111,28.4 				"/>
			</g>
		</g>
	</g>
</g>
</svg>
